G75*
G70*
%OFA0B0*%
%FSLAX24Y24*%
%IPPOS*%
%LPD*%
%AMOC8*
5,1,8,0,0,1.08239X$1,22.5*
%
%ADD10R,0.0354X0.0276*%
%ADD11R,0.0630X0.0551*%
%ADD12R,0.0276X0.0354*%
%ADD13R,0.0315X0.0315*%
%ADD14R,0.0600X0.0300*%
%ADD15R,0.0472X0.0217*%
%ADD16C,0.0394*%
%ADD17C,0.0640*%
%ADD18R,0.0669X0.0276*%
%ADD19R,0.0500X0.0220*%
%ADD20R,0.0220X0.0500*%
%ADD21C,0.0100*%
%ADD22C,0.0400*%
%ADD23C,0.0120*%
%ADD24C,0.0080*%
D10*
X019335Y004580D03*
X019335Y005092D03*
X022735Y005080D03*
X022735Y005592D03*
X019685Y010880D03*
X019685Y011392D03*
D11*
X019335Y012285D03*
X019335Y013387D03*
X022535Y013387D03*
X022535Y012285D03*
D12*
X021091Y013836D03*
X020580Y013836D03*
X022330Y014836D03*
X022841Y014836D03*
X022791Y006986D03*
X022280Y006986D03*
X022280Y006436D03*
X022791Y006436D03*
D13*
X022735Y004631D03*
X022735Y004041D03*
X021131Y011836D03*
X020540Y011836D03*
D14*
X019835Y005586D03*
X021835Y005586D03*
X021835Y004086D03*
X019835Y004086D03*
D15*
X020324Y012462D03*
X021347Y012462D03*
X021347Y012836D03*
X021347Y013210D03*
X020324Y013210D03*
D16*
X018935Y014836D03*
X022285Y004836D03*
D17*
X017835Y003836D03*
X017835Y004836D03*
X017835Y005836D03*
X017835Y006836D03*
X017835Y007836D03*
X017835Y008836D03*
X017835Y009836D03*
X017835Y010836D03*
X017835Y011836D03*
X017835Y012836D03*
X017835Y013836D03*
X017835Y014836D03*
X018335Y015836D03*
X019335Y015836D03*
X020335Y015836D03*
X021335Y015836D03*
X022335Y015836D03*
X023335Y015836D03*
X023835Y014836D03*
X023835Y013836D03*
X023835Y012836D03*
X023835Y011836D03*
X022735Y011336D03*
X023835Y010836D03*
X022735Y010336D03*
X023835Y009836D03*
X023835Y008836D03*
X023835Y007836D03*
X023835Y006836D03*
X023835Y005836D03*
X023835Y004836D03*
X023835Y003836D03*
D18*
X019035Y010514D03*
X019035Y010986D03*
X019035Y011459D03*
D19*
G36*
X020518Y010557D02*
X020166Y010909D01*
X020322Y011065D01*
X020674Y010713D01*
X020518Y010557D01*
G37*
G36*
X020295Y010334D02*
X019943Y010686D01*
X020099Y010842D01*
X020451Y010490D01*
X020295Y010334D01*
G37*
G36*
X020072Y010111D02*
X019720Y010463D01*
X019876Y010619D01*
X020228Y010267D01*
X020072Y010111D01*
G37*
G36*
X019850Y009888D02*
X019498Y010240D01*
X019654Y010396D01*
X020006Y010044D01*
X019850Y009888D01*
G37*
G36*
X019627Y009666D02*
X019275Y010018D01*
X019431Y010174D01*
X019783Y009822D01*
X019627Y009666D01*
G37*
G36*
X019404Y009443D02*
X019052Y009795D01*
X019208Y009951D01*
X019560Y009599D01*
X019404Y009443D01*
G37*
G36*
X019182Y009220D02*
X018830Y009572D01*
X018986Y009728D01*
X019338Y009376D01*
X019182Y009220D01*
G37*
G36*
X018959Y008998D02*
X018607Y009350D01*
X018763Y009506D01*
X019115Y009154D01*
X018959Y008998D01*
G37*
G36*
X022240Y007498D02*
X021888Y007850D01*
X022044Y008006D01*
X022396Y007654D01*
X022240Y007498D01*
G37*
G36*
X022017Y007276D02*
X021665Y007628D01*
X021821Y007784D01*
X022173Y007432D01*
X022017Y007276D01*
G37*
G36*
X021794Y007053D02*
X021442Y007405D01*
X021598Y007561D01*
X021950Y007209D01*
X021794Y007053D01*
G37*
G36*
X021572Y006830D02*
X021220Y007182D01*
X021376Y007338D01*
X021728Y006986D01*
X021572Y006830D01*
G37*
G36*
X021349Y006608D02*
X020997Y006960D01*
X021153Y007116D01*
X021505Y006764D01*
X021349Y006608D01*
G37*
G36*
X022462Y007721D02*
X022110Y008073D01*
X022266Y008229D01*
X022618Y007877D01*
X022462Y007721D01*
G37*
G36*
X022685Y007944D02*
X022333Y008296D01*
X022489Y008452D01*
X022841Y008100D01*
X022685Y007944D01*
G37*
G36*
X022908Y008167D02*
X022556Y008519D01*
X022712Y008675D01*
X023064Y008323D01*
X022908Y008167D01*
G37*
D20*
G36*
X022712Y008998D02*
X022556Y009154D01*
X022908Y009506D01*
X023064Y009350D01*
X022712Y008998D01*
G37*
G36*
X022489Y009220D02*
X022333Y009376D01*
X022685Y009728D01*
X022841Y009572D01*
X022489Y009220D01*
G37*
G36*
X022266Y009443D02*
X022110Y009599D01*
X022462Y009951D01*
X022618Y009795D01*
X022266Y009443D01*
G37*
G36*
X022044Y009666D02*
X021888Y009822D01*
X022240Y010174D01*
X022396Y010018D01*
X022044Y009666D01*
G37*
G36*
X021821Y009888D02*
X021665Y010044D01*
X022017Y010396D01*
X022173Y010240D01*
X021821Y009888D01*
G37*
G36*
X021598Y010111D02*
X021442Y010267D01*
X021794Y010619D01*
X021950Y010463D01*
X021598Y010111D01*
G37*
G36*
X021376Y010334D02*
X021220Y010490D01*
X021572Y010842D01*
X021728Y010686D01*
X021376Y010334D01*
G37*
G36*
X021153Y010557D02*
X020997Y010713D01*
X021349Y011065D01*
X021505Y010909D01*
X021153Y010557D01*
G37*
G36*
X018763Y008167D02*
X018607Y008323D01*
X018959Y008675D01*
X019115Y008519D01*
X018763Y008167D01*
G37*
G36*
X018986Y007944D02*
X018830Y008100D01*
X019182Y008452D01*
X019338Y008296D01*
X018986Y007944D01*
G37*
G36*
X019208Y007721D02*
X019052Y007877D01*
X019404Y008229D01*
X019560Y008073D01*
X019208Y007721D01*
G37*
G36*
X019431Y007498D02*
X019275Y007654D01*
X019627Y008006D01*
X019783Y007850D01*
X019431Y007498D01*
G37*
G36*
X019654Y007276D02*
X019498Y007432D01*
X019850Y007784D01*
X020006Y007628D01*
X019654Y007276D01*
G37*
G36*
X019876Y007053D02*
X019720Y007209D01*
X020072Y007561D01*
X020228Y007405D01*
X019876Y007053D01*
G37*
G36*
X020099Y006830D02*
X019943Y006986D01*
X020295Y007338D01*
X020451Y007182D01*
X020099Y006830D01*
G37*
G36*
X020322Y006608D02*
X020166Y006764D01*
X020518Y007116D01*
X020674Y006960D01*
X020322Y006608D01*
G37*
D21*
X020420Y006862D02*
X020585Y007027D01*
X020585Y008236D01*
X020485Y008336D01*
X020835Y008536D02*
X020835Y007686D01*
X020835Y007686D01*
X020835Y006836D01*
X020335Y006336D01*
X019835Y006336D01*
X019335Y005836D01*
X019335Y005092D01*
X019835Y004786D02*
X019835Y005586D01*
X020835Y005586D01*
X021835Y005586D01*
X022305Y005603D02*
X022388Y005603D01*
X022388Y005701D02*
X022305Y005701D01*
X022305Y005800D02*
X022388Y005800D01*
X022388Y005384D01*
X022436Y005336D01*
X022388Y005288D01*
X022388Y005190D01*
X022358Y005203D01*
X022212Y005203D01*
X022078Y005147D01*
X021974Y005044D01*
X021919Y004909D01*
X021919Y004763D01*
X021974Y004628D01*
X022078Y004525D01*
X022212Y004469D01*
X022358Y004469D01*
X022408Y004490D01*
X022408Y004403D01*
X022490Y004321D01*
X022486Y004318D01*
X022458Y004290D01*
X022438Y004256D01*
X022428Y004218D01*
X022428Y004070D01*
X022706Y004070D01*
X022706Y004012D01*
X022428Y004012D01*
X022428Y003906D01*
X022283Y003906D01*
X022285Y003916D01*
X022285Y004061D01*
X021861Y004061D01*
X021861Y004111D01*
X022285Y004111D01*
X022285Y004256D01*
X022275Y004294D01*
X022255Y004328D01*
X022228Y004356D01*
X022193Y004376D01*
X022155Y004386D01*
X021860Y004386D01*
X021860Y004111D01*
X021810Y004111D01*
X021810Y004061D01*
X021385Y004061D01*
X021385Y003916D01*
X021388Y003906D01*
X020283Y003906D01*
X020285Y003916D01*
X020285Y004061D01*
X019861Y004061D01*
X019861Y004111D01*
X020285Y004111D01*
X020285Y004256D01*
X020275Y004294D01*
X020255Y004328D01*
X020228Y004356D01*
X020193Y004376D01*
X020155Y004386D01*
X019860Y004386D01*
X019860Y004111D01*
X019810Y004111D01*
X019810Y004061D01*
X019422Y004061D01*
X019210Y004272D01*
X019390Y004272D01*
X019385Y004256D01*
X019385Y004111D01*
X019810Y004111D01*
X019810Y004386D01*
X019746Y004386D01*
X019855Y004495D01*
X019926Y004566D01*
X019927Y004566D01*
X020055Y004695D01*
X020055Y005266D01*
X020206Y005266D01*
X020305Y005366D01*
X020532Y005366D01*
X020626Y005272D01*
X020762Y005216D01*
X020909Y005216D01*
X021045Y005272D01*
X021139Y005366D01*
X021365Y005366D01*
X021365Y005366D01*
X021465Y005266D01*
X022206Y005266D01*
X022305Y005366D01*
X022305Y005806D01*
X022246Y005866D01*
X022454Y005866D01*
X022388Y005800D01*
X022735Y005592D02*
X022735Y006086D01*
X022026Y006086D01*
X021251Y006862D01*
X021474Y007084D02*
X022122Y006436D01*
X022280Y006436D01*
X022335Y006436D01*
X022772Y006455D02*
X022772Y006659D01*
X022772Y006967D01*
X022810Y006967D01*
X022810Y006659D01*
X022810Y006455D01*
X022772Y006455D01*
X022791Y006436D02*
X022835Y006436D01*
X022835Y006980D01*
X022791Y006986D01*
X022835Y006986D01*
X022835Y007059D01*
X022810Y007081D02*
X022772Y007081D01*
X022772Y007005D02*
X022772Y007313D01*
X022634Y007313D01*
X022596Y007303D01*
X022561Y007283D01*
X022550Y007271D01*
X022488Y007333D01*
X022427Y007333D01*
X022427Y007333D01*
X022357Y007402D01*
X022421Y007466D01*
X022142Y007745D01*
X022149Y007752D01*
X022428Y007473D01*
X022506Y007551D01*
X022534Y007551D01*
X022729Y007745D01*
X022858Y007616D01*
X023396Y007616D01*
X023420Y007558D01*
X023558Y007421D01*
X023738Y007346D01*
X023933Y007346D01*
X024113Y007421D01*
X024125Y007433D01*
X024125Y007239D01*
X024113Y007251D01*
X023933Y007326D01*
X023738Y007326D01*
X023558Y007251D01*
X023420Y007114D01*
X023345Y006934D01*
X023345Y006739D01*
X023369Y006681D01*
X023079Y006391D01*
X023079Y006391D01*
X023079Y006417D01*
X022810Y006417D01*
X022810Y006455D01*
X023079Y006455D01*
X023079Y006633D01*
X023069Y006671D01*
X023049Y006705D01*
X023043Y006711D01*
X023049Y006717D01*
X023069Y006751D01*
X023079Y006789D01*
X023079Y006967D01*
X022810Y006967D01*
X022810Y007005D01*
X022772Y007005D01*
X022810Y007005D02*
X022810Y007313D01*
X022949Y007313D01*
X022987Y007303D01*
X023021Y007283D01*
X023049Y007255D01*
X023069Y007221D01*
X023079Y007183D01*
X023079Y007005D01*
X022810Y007005D01*
X022810Y006982D02*
X023366Y006982D01*
X023345Y006884D02*
X023079Y006884D01*
X023078Y006785D02*
X023345Y006785D01*
X023367Y006687D02*
X023060Y006687D01*
X023079Y006588D02*
X023276Y006588D01*
X023178Y006489D02*
X023079Y006489D01*
X022810Y006489D02*
X022772Y006489D01*
X022772Y006588D02*
X022810Y006588D01*
X022810Y006687D02*
X022772Y006687D01*
X022772Y006785D02*
X022810Y006785D01*
X022810Y006884D02*
X022772Y006884D01*
X023079Y007081D02*
X023406Y007081D01*
X023486Y007179D02*
X023079Y007179D01*
X023027Y007278D02*
X023622Y007278D01*
X023665Y007376D02*
X022383Y007376D01*
X022412Y007475D02*
X022426Y007475D01*
X022430Y007475D02*
X023504Y007475D01*
X023414Y007573D02*
X022557Y007573D01*
X022655Y007672D02*
X022802Y007672D01*
X022729Y007745D02*
X022729Y007745D01*
X022949Y007836D02*
X023835Y007836D01*
X022949Y007836D02*
X022587Y008198D01*
X022810Y008421D02*
X023225Y008836D01*
X023835Y008836D01*
X023394Y009836D02*
X022810Y009252D01*
X022587Y009474D02*
X023835Y010723D01*
X023835Y010836D01*
X022735Y010336D02*
X022735Y010068D01*
X022364Y009697D01*
X021919Y010142D02*
X021685Y009909D01*
X021685Y009336D01*
X021335Y009186D02*
X021685Y008836D01*
X022135Y008836D01*
X021889Y008559D02*
X021055Y008559D01*
X021055Y008627D02*
X020927Y008756D01*
X021454Y008756D01*
X021465Y008745D02*
X021594Y008616D01*
X021832Y008616D01*
X021926Y008522D01*
X022062Y008466D01*
X022209Y008466D01*
X022299Y008503D01*
X022195Y008400D01*
X021940Y008144D01*
X021940Y008116D01*
X021862Y008039D01*
X022142Y007760D01*
X022134Y007752D01*
X021855Y008032D01*
X021778Y007954D01*
X021750Y007954D01*
X021495Y007699D01*
X021332Y007537D01*
X021074Y007795D01*
X021055Y007814D01*
X021055Y008627D01*
X021025Y008657D02*
X021553Y008657D01*
X021465Y008745D02*
X021191Y009019D01*
X021145Y008972D01*
X021009Y008916D01*
X020862Y008916D01*
X020726Y008972D01*
X020622Y009076D01*
X020565Y009212D01*
X020565Y009360D01*
X020620Y009491D01*
X020515Y009595D01*
X020515Y010045D01*
X020444Y010116D01*
X020358Y010116D01*
X020324Y010149D01*
X020261Y010086D01*
X019982Y010365D01*
X019975Y010358D01*
X020254Y010079D01*
X020190Y010015D01*
X020276Y009929D01*
X020277Y009929D01*
X020405Y009800D01*
X020405Y009056D01*
X020444Y009056D01*
X020627Y009056D01*
X020927Y008756D01*
X020828Y008854D02*
X021356Y008854D01*
X021257Y008953D02*
X021098Y008953D01*
X020773Y008953D02*
X020730Y008953D01*
X020647Y009052D02*
X020631Y009052D01*
X020591Y009150D02*
X020405Y009150D01*
X020405Y009249D02*
X020565Y009249D01*
X020565Y009347D02*
X020405Y009347D01*
X020405Y009446D02*
X020601Y009446D01*
X020566Y009544D02*
X020405Y009544D01*
X020405Y009643D02*
X020515Y009643D01*
X020515Y009741D02*
X020405Y009741D01*
X020365Y009840D02*
X020515Y009840D01*
X020515Y009938D02*
X020267Y009938D01*
X020335Y010004D02*
X020385Y009986D01*
X020335Y010004D02*
X019974Y010365D01*
X020000Y010333D02*
X020014Y010333D01*
X020098Y010234D02*
X020113Y010234D01*
X020197Y010136D02*
X020211Y010136D01*
X020212Y010037D02*
X020515Y010037D01*
X020338Y010136D02*
X020311Y010136D01*
X020449Y010336D02*
X020535Y010336D01*
X020735Y010136D01*
X020735Y009686D01*
X020935Y009486D01*
X020935Y009286D01*
X021335Y009186D02*
X021335Y009636D01*
X021435Y009736D01*
X021435Y010104D01*
X021696Y010365D01*
X021919Y010142D02*
X022085Y010309D01*
X022085Y010936D01*
X022285Y011136D01*
X022285Y011586D01*
X022535Y011836D01*
X023185Y011836D01*
X023335Y011986D01*
X023335Y012836D01*
X023835Y012836D01*
X023335Y012836D02*
X023335Y014586D01*
X023085Y014836D01*
X022841Y014836D01*
X022585Y014537D02*
X022633Y014489D01*
X023050Y014489D01*
X023086Y014525D01*
X023115Y014495D01*
X023115Y012927D01*
X023115Y012745D01*
X023115Y012077D01*
X023094Y012056D01*
X023000Y012056D01*
X023000Y012235D01*
X022586Y012235D01*
X022586Y012335D01*
X023000Y012335D01*
X023000Y012580D01*
X022990Y012618D01*
X022970Y012653D01*
X022942Y012680D01*
X022908Y012700D01*
X022870Y012710D01*
X022585Y012710D01*
X022585Y012335D01*
X022485Y012335D01*
X022485Y012710D01*
X022305Y012710D01*
X022305Y012942D01*
X022921Y012942D01*
X023020Y013041D01*
X023020Y013733D01*
X022921Y013833D01*
X022852Y013833D01*
X022905Y013962D01*
X022905Y014110D01*
X022849Y014246D01*
X022745Y014350D01*
X022609Y014406D01*
X022462Y014406D01*
X022326Y014350D01*
X022229Y014253D01*
X022055Y014427D01*
X022055Y014555D01*
X022121Y014489D01*
X022538Y014489D01*
X022585Y014537D01*
X022689Y014373D02*
X023115Y014373D01*
X023115Y014471D02*
X022055Y014471D01*
X022110Y014373D02*
X022382Y014373D01*
X022251Y014274D02*
X022208Y014274D01*
X022085Y014086D02*
X021835Y014336D01*
X021835Y015336D01*
X022335Y015836D01*
X022485Y015336D02*
X022330Y015180D01*
X022330Y014836D01*
X022485Y015336D02*
X022835Y015336D01*
X023335Y015836D01*
X021835Y015336D02*
X018335Y015336D01*
X017835Y014836D01*
X018296Y014669D02*
X018608Y014669D01*
X018624Y014628D02*
X018728Y014525D01*
X018862Y014469D01*
X019008Y014469D01*
X019143Y014525D01*
X019246Y014628D01*
X019302Y014763D01*
X019302Y014909D01*
X019246Y015044D01*
X019174Y015116D01*
X019692Y015116D01*
X019622Y015046D01*
X019565Y014910D01*
X019565Y014762D01*
X019622Y014626D01*
X019715Y014533D01*
X019715Y013927D01*
X019715Y013833D01*
X018950Y013833D01*
X018850Y013733D01*
X018850Y013041D01*
X018950Y012942D01*
X019715Y012942D01*
X019715Y012703D01*
X019715Y012696D01*
X019708Y012700D01*
X019670Y012710D01*
X019385Y012710D01*
X019385Y012335D01*
X019285Y012335D01*
X019285Y012235D01*
X018870Y012235D01*
X018870Y011990D01*
X018881Y011951D01*
X018900Y011917D01*
X018928Y011889D01*
X018963Y011870D01*
X019001Y011859D01*
X019285Y011859D01*
X019285Y012235D01*
X019385Y012235D01*
X019385Y011859D01*
X019670Y011859D01*
X019708Y011870D01*
X019715Y011874D01*
X019715Y011862D01*
X019772Y011726D01*
X019819Y011680D01*
X019704Y011680D01*
X019704Y011411D01*
X019666Y011411D01*
X019540Y011411D01*
X019540Y011373D01*
X019666Y011373D01*
X019666Y011411D01*
X019666Y011680D01*
X019527Y011680D01*
X019440Y011766D01*
X018630Y011766D01*
X018543Y011678D01*
X018517Y011678D01*
X018244Y011406D01*
X018115Y011277D01*
X018115Y011249D01*
X018113Y011251D01*
X017933Y011326D01*
X017738Y011326D01*
X017558Y011251D01*
X017545Y011239D01*
X017545Y011466D01*
X017589Y011434D01*
X017655Y011401D01*
X017725Y011378D01*
X017785Y011368D01*
X017785Y011786D01*
X017885Y011786D01*
X017885Y011368D01*
X017945Y011378D01*
X018016Y011401D01*
X018082Y011434D01*
X018142Y011478D01*
X018194Y011530D01*
X018237Y011590D01*
X018271Y011656D01*
X018294Y011726D01*
X018303Y011786D01*
X017886Y011786D01*
X017886Y011886D01*
X018303Y011886D01*
X018294Y011946D01*
X018271Y012016D01*
X018237Y012082D01*
X018194Y012142D01*
X018142Y012195D01*
X018082Y012238D01*
X018016Y012272D01*
X017945Y012294D01*
X017885Y012304D01*
X017885Y011886D01*
X017785Y011886D01*
X017785Y012304D01*
X017725Y012294D01*
X017655Y012272D01*
X017589Y012238D01*
X017545Y012206D01*
X017545Y012433D01*
X017558Y012421D01*
X017738Y012346D01*
X017933Y012346D01*
X018113Y012421D01*
X018251Y012558D01*
X018325Y012739D01*
X018325Y012934D01*
X018251Y013114D01*
X018113Y013251D01*
X017933Y013326D01*
X017738Y013326D01*
X017558Y013251D01*
X017545Y013239D01*
X017545Y013433D01*
X017558Y013421D01*
X017738Y013346D01*
X017933Y013346D01*
X018113Y013421D01*
X018251Y013558D01*
X018325Y013739D01*
X018325Y013934D01*
X018251Y014114D01*
X018113Y014251D01*
X017933Y014326D01*
X017738Y014326D01*
X017558Y014251D01*
X017545Y014239D01*
X017545Y014433D01*
X017558Y014421D01*
X017738Y014346D01*
X017933Y014346D01*
X018113Y014421D01*
X018251Y014558D01*
X018325Y014739D01*
X018325Y014934D01*
X018302Y014991D01*
X018427Y015116D01*
X018697Y015116D01*
X018624Y015044D01*
X018569Y014909D01*
X018569Y014763D01*
X018624Y014628D01*
X018683Y014570D02*
X018256Y014570D01*
X018164Y014471D02*
X018857Y014471D01*
X019014Y014471D02*
X019715Y014471D01*
X019715Y014373D02*
X017998Y014373D01*
X018058Y014274D02*
X019715Y014274D01*
X019715Y014176D02*
X018189Y014176D01*
X018266Y014077D02*
X019715Y014077D01*
X019715Y013979D02*
X018307Y013979D01*
X018325Y013880D02*
X019715Y013880D01*
X019935Y013836D02*
X020580Y013836D01*
X019935Y013836D02*
X019935Y013386D01*
X019935Y012612D01*
X020085Y012462D01*
X020085Y011936D01*
X020085Y011036D01*
X019935Y010886D01*
X019685Y010886D01*
X019680Y010880D01*
X019685Y010880D01*
X019685Y010686D01*
X019535Y010536D01*
X019535Y010349D01*
X019742Y010142D01*
X019752Y010142D01*
X020185Y009709D01*
X020185Y008836D01*
X020535Y008836D01*
X020835Y008536D01*
X021055Y008460D02*
X022256Y008460D01*
X022195Y008400D02*
X022195Y008400D01*
X022157Y008362D02*
X021055Y008362D01*
X021055Y008263D02*
X022059Y008263D01*
X021960Y008165D02*
X021055Y008165D01*
X021055Y008066D02*
X021890Y008066D01*
X021919Y007968D02*
X021934Y007968D01*
X022018Y007869D02*
X022032Y007869D01*
X022116Y007771D02*
X022131Y007771D01*
X022215Y007672D02*
X022229Y007672D01*
X022314Y007573D02*
X022328Y007573D01*
X021919Y007530D02*
X022335Y007113D01*
X022335Y006986D01*
X022280Y006986D01*
X022543Y007278D02*
X022556Y007278D01*
X022772Y007278D02*
X022810Y007278D01*
X022810Y007179D02*
X022772Y007179D01*
X023835Y006836D02*
X023085Y006086D01*
X022735Y006086D01*
X023209Y005898D02*
X023345Y005898D01*
X023345Y005934D02*
X023345Y005739D01*
X023420Y005558D01*
X023558Y005421D01*
X023738Y005346D01*
X023933Y005346D01*
X024113Y005421D01*
X024125Y005433D01*
X024125Y005239D01*
X024113Y005251D01*
X023933Y005326D01*
X023738Y005326D01*
X023558Y005251D01*
X023420Y005114D01*
X023345Y004934D01*
X023345Y004739D01*
X023420Y004558D01*
X023558Y004421D01*
X023738Y004346D01*
X023933Y004346D01*
X024113Y004421D01*
X024125Y004433D01*
X024125Y004239D01*
X024113Y004251D01*
X023933Y004326D01*
X023738Y004326D01*
X023558Y004251D01*
X023420Y004114D01*
X023345Y003934D01*
X023345Y003906D01*
X023043Y003906D01*
X023043Y004012D01*
X022764Y004012D01*
X022764Y004070D01*
X023043Y004070D01*
X023043Y004218D01*
X023033Y004256D01*
X023013Y004290D01*
X022985Y004318D01*
X022980Y004321D01*
X023063Y004403D01*
X023063Y004852D01*
X023083Y004872D01*
X023083Y005288D01*
X023035Y005336D01*
X023083Y005384D01*
X023083Y005800D01*
X023017Y005866D01*
X023177Y005866D01*
X023417Y006107D01*
X023345Y005934D01*
X023372Y005997D02*
X023307Y005997D01*
X023406Y006095D02*
X023412Y006095D01*
X023345Y005800D02*
X023083Y005800D01*
X023083Y005701D02*
X023361Y005701D01*
X023402Y005603D02*
X023083Y005603D01*
X023083Y005504D02*
X023474Y005504D01*
X023594Y005405D02*
X023083Y005405D01*
X023064Y005307D02*
X023692Y005307D01*
X023515Y005208D02*
X023083Y005208D01*
X023083Y005110D02*
X023419Y005110D01*
X023378Y005011D02*
X023083Y005011D01*
X023083Y004913D02*
X023345Y004913D01*
X023345Y004814D02*
X023063Y004814D01*
X023063Y004716D02*
X023355Y004716D01*
X023396Y004617D02*
X023063Y004617D01*
X023063Y004519D02*
X023460Y004519D01*
X023559Y004420D02*
X023063Y004420D01*
X022981Y004321D02*
X023727Y004321D01*
X023944Y004321D02*
X024125Y004321D01*
X024111Y004420D02*
X024125Y004420D01*
X023529Y004223D02*
X023042Y004223D01*
X023043Y004124D02*
X023431Y004124D01*
X023384Y004026D02*
X022764Y004026D01*
X022706Y004026D02*
X022285Y004026D01*
X022285Y004124D02*
X022428Y004124D01*
X022429Y004223D02*
X022285Y004223D01*
X022259Y004321D02*
X022490Y004321D01*
X022408Y004420D02*
X019780Y004420D01*
X019810Y004321D02*
X019860Y004321D01*
X019860Y004223D02*
X019810Y004223D01*
X019810Y004124D02*
X019860Y004124D01*
X020285Y004124D02*
X021385Y004124D01*
X021385Y004111D02*
X021810Y004111D01*
X021810Y004386D01*
X021516Y004386D01*
X021478Y004376D01*
X021443Y004356D01*
X021415Y004328D01*
X021396Y004294D01*
X021385Y004256D01*
X021385Y004111D01*
X021385Y004026D02*
X020285Y004026D01*
X020285Y003927D02*
X021385Y003927D01*
X021810Y004124D02*
X021860Y004124D01*
X021860Y004223D02*
X021810Y004223D01*
X021810Y004321D02*
X021860Y004321D01*
X021412Y004321D02*
X020259Y004321D01*
X020285Y004223D02*
X021385Y004223D01*
X021986Y004617D02*
X019978Y004617D01*
X020055Y004716D02*
X021938Y004716D01*
X021919Y004814D02*
X020055Y004814D01*
X020055Y004913D02*
X021920Y004913D01*
X021961Y005011D02*
X020055Y005011D01*
X020055Y005110D02*
X022040Y005110D01*
X022247Y005307D02*
X022407Y005307D01*
X022388Y005405D02*
X022305Y005405D01*
X022305Y005504D02*
X022388Y005504D01*
X022388Y005208D02*
X020055Y005208D01*
X020247Y005307D02*
X020591Y005307D01*
X020305Y005366D02*
X020305Y005366D01*
X021079Y005307D02*
X021424Y005307D01*
X022735Y005080D02*
X022735Y004631D01*
X022093Y004519D02*
X019879Y004519D01*
X019855Y004495D02*
X019855Y004495D01*
X019635Y004586D02*
X019835Y004786D01*
X019635Y004586D02*
X019341Y004586D01*
X019335Y004580D01*
X018735Y004736D02*
X017835Y003836D01*
X018935Y004236D02*
X018935Y006268D01*
X019974Y007307D01*
X019752Y007530D02*
X018735Y006513D01*
X018735Y004736D01*
X018535Y005536D02*
X017835Y004836D01*
X018935Y004236D02*
X019485Y003686D01*
X023685Y003686D01*
X023835Y003836D01*
X023345Y003927D02*
X023043Y003927D01*
X022428Y003927D02*
X022285Y003927D01*
X019385Y004124D02*
X019358Y004124D01*
X019385Y004223D02*
X019260Y004223D01*
X018535Y005536D02*
X018535Y006759D01*
X019529Y007752D01*
X019306Y007975D02*
X018335Y007004D01*
X018335Y006336D01*
X017835Y005836D01*
X017835Y006836D02*
X017835Y006950D01*
X019084Y008198D01*
X018861Y008421D02*
X018276Y007836D01*
X017835Y007836D01*
X019485Y008736D02*
X019685Y008536D01*
X020035Y008536D01*
X020185Y008686D01*
X020185Y008836D01*
X019965Y008854D02*
X019705Y008854D01*
X019705Y008827D02*
X019705Y009502D01*
X019731Y009528D01*
X019731Y009556D01*
X019808Y009633D01*
X019529Y009912D01*
X019536Y009920D01*
X019815Y009640D01*
X019879Y009704D01*
X019965Y009618D01*
X019965Y008927D01*
X019965Y008777D01*
X019944Y008756D01*
X019777Y008756D01*
X019705Y008827D01*
X019705Y008953D02*
X019965Y008953D01*
X019965Y009052D02*
X019705Y009052D01*
X019705Y009150D02*
X019965Y009150D01*
X019965Y009249D02*
X019705Y009249D01*
X019705Y009347D02*
X019965Y009347D01*
X019965Y009446D02*
X019705Y009446D01*
X019731Y009544D02*
X019965Y009544D01*
X019940Y009643D02*
X019818Y009643D01*
X019813Y009643D02*
X019799Y009643D01*
X019714Y009741D02*
X019700Y009741D01*
X019616Y009840D02*
X019602Y009840D01*
X019522Y009920D02*
X019243Y010199D01*
X019165Y010121D01*
X019137Y010121D01*
X018914Y009899D01*
X018755Y009740D01*
X018755Y010206D01*
X019250Y010206D01*
X019529Y009927D01*
X019522Y009920D01*
X019517Y009938D02*
X019503Y009938D01*
X019419Y010037D02*
X019405Y010037D01*
X019320Y010136D02*
X019306Y010136D01*
X019179Y010136D02*
X018755Y010136D01*
X018755Y010037D02*
X019052Y010037D01*
X018954Y009938D02*
X018755Y009938D01*
X018755Y009840D02*
X018855Y009840D01*
X018914Y009899D02*
X018914Y009899D01*
X018757Y009741D02*
X018755Y009741D01*
X018535Y009577D02*
X018535Y010386D01*
X018663Y010514D01*
X019035Y010514D01*
X019735Y010136D02*
X019742Y010142D01*
X020197Y010588D02*
X020449Y010336D01*
X020420Y010811D02*
X021085Y010145D01*
X021085Y009986D01*
X021474Y010588D02*
X022085Y011200D01*
X022085Y014086D01*
X022535Y014036D02*
X022535Y013387D01*
X023020Y013387D02*
X023115Y013387D01*
X023115Y013289D02*
X023020Y013289D01*
X023020Y013190D02*
X023115Y013190D01*
X023115Y013092D02*
X023020Y013092D01*
X022972Y012993D02*
X023115Y012993D01*
X023115Y012895D02*
X022305Y012895D01*
X022305Y012796D02*
X023115Y012796D01*
X023115Y012698D02*
X022913Y012698D01*
X022995Y012599D02*
X023115Y012599D01*
X023115Y012501D02*
X023000Y012501D01*
X023000Y012402D02*
X023115Y012402D01*
X023115Y012304D02*
X022586Y012304D01*
X022585Y012402D02*
X022485Y012402D01*
X022485Y012501D02*
X022585Y012501D01*
X022585Y012599D02*
X022485Y012599D01*
X022485Y012698D02*
X022585Y012698D01*
X021865Y012698D02*
X021731Y012698D01*
X021733Y012708D02*
X021733Y012832D01*
X021352Y012832D01*
X021352Y012840D01*
X021733Y012840D01*
X021733Y012964D01*
X021723Y013001D01*
X021753Y013031D01*
X021753Y013331D01*
X021849Y013426D01*
X021865Y013466D01*
X021865Y011291D01*
X021615Y011040D01*
X021420Y011235D01*
X021279Y011235D01*
X021209Y011164D01*
X021200Y011172D01*
X021149Y011296D01*
X021045Y011400D01*
X020909Y011456D01*
X020762Y011456D01*
X020626Y011400D01*
X020522Y011296D01*
X020466Y011161D01*
X020391Y011235D01*
X020305Y011235D01*
X020305Y011515D01*
X020306Y011515D01*
X020305Y011515D02*
X020312Y011509D01*
X020768Y011509D01*
X020851Y011591D01*
X020853Y011586D01*
X020881Y011559D01*
X020915Y011539D01*
X020953Y011529D01*
X021102Y011529D01*
X021102Y011807D01*
X021159Y011807D01*
X021159Y011529D01*
X021308Y011529D01*
X021346Y011539D01*
X021380Y011559D01*
X021408Y011586D01*
X021428Y011621D01*
X021438Y011659D01*
X021438Y011807D01*
X021160Y011807D01*
X021160Y011865D01*
X021438Y011865D01*
X021438Y012013D01*
X021428Y012051D01*
X021408Y012086D01*
X021380Y012114D01*
X021346Y012133D01*
X021308Y012144D01*
X021159Y012144D01*
X021159Y011865D01*
X021102Y011865D01*
X021102Y012144D01*
X020954Y012144D01*
X020955Y012145D01*
X020955Y012242D01*
X020982Y012242D01*
X021041Y012184D01*
X021654Y012184D01*
X021753Y012283D01*
X021753Y012641D01*
X021723Y012671D01*
X021733Y012708D01*
X021733Y012796D02*
X021865Y012796D01*
X021865Y012895D02*
X021733Y012895D01*
X021735Y012836D02*
X021347Y012836D01*
X021726Y012993D02*
X021865Y012993D01*
X021865Y013092D02*
X021753Y013092D01*
X021753Y013190D02*
X021865Y013190D01*
X021865Y013289D02*
X021753Y013289D01*
X021810Y013387D02*
X021865Y013387D01*
X021535Y013636D02*
X021347Y013448D01*
X021347Y013210D01*
X021059Y013210D01*
X020935Y013086D01*
X020935Y012536D01*
X021009Y012462D01*
X021347Y012462D01*
X021753Y012501D02*
X021865Y012501D01*
X021865Y012599D02*
X021753Y012599D01*
X021753Y012402D02*
X021865Y012402D01*
X021865Y012304D02*
X021753Y012304D01*
X021675Y012205D02*
X021865Y012205D01*
X021865Y012106D02*
X021387Y012106D01*
X021438Y012008D02*
X021865Y012008D01*
X021865Y011909D02*
X021438Y011909D01*
X021438Y011712D02*
X021865Y011712D01*
X021865Y011614D02*
X021424Y011614D01*
X021159Y011614D02*
X021102Y011614D01*
X021102Y011712D02*
X021159Y011712D01*
X021160Y011811D02*
X021865Y011811D01*
X021159Y011909D02*
X021102Y011909D01*
X021102Y012008D02*
X021159Y012008D01*
X021159Y012106D02*
X021102Y012106D01*
X021019Y012205D02*
X020955Y012205D01*
X020735Y012236D02*
X020535Y012036D01*
X020535Y011836D01*
X020540Y011836D01*
X019786Y011712D02*
X019494Y011712D01*
X019666Y011614D02*
X019704Y011614D01*
X019704Y011515D02*
X019666Y011515D01*
X019666Y011417D02*
X019704Y011417D01*
X019685Y011392D02*
X019641Y011392D01*
X019235Y010986D01*
X019035Y010986D01*
X019055Y010967D02*
X019055Y011005D01*
X019338Y011005D01*
X019338Y010967D01*
X019055Y010967D01*
X018608Y011459D02*
X018335Y011186D01*
X018335Y009286D01*
X018785Y008836D01*
X019085Y008836D01*
X019285Y009036D01*
X019285Y009272D01*
X019084Y009474D01*
X019306Y009697D02*
X019485Y009518D01*
X019485Y008736D01*
X018861Y009252D02*
X018535Y009577D01*
X020975Y011086D02*
X021251Y010811D01*
X020975Y011086D02*
X020835Y011086D01*
X020490Y011220D02*
X020407Y011220D01*
X020305Y011318D02*
X020544Y011318D01*
X020667Y011417D02*
X020305Y011417D01*
X020775Y011515D02*
X021865Y011515D01*
X021865Y011417D02*
X021004Y011417D01*
X021127Y011318D02*
X021865Y011318D01*
X021794Y011220D02*
X021436Y011220D01*
X021534Y011121D02*
X021696Y011121D01*
X021264Y011220D02*
X021181Y011220D01*
X019737Y011811D02*
X017886Y011811D01*
X017885Y011909D02*
X017785Y011909D01*
X017785Y012008D02*
X017885Y012008D01*
X017885Y012106D02*
X017785Y012106D01*
X017785Y012205D02*
X017885Y012205D01*
X017885Y012304D02*
X017785Y012304D01*
X017783Y012304D02*
X017545Y012304D01*
X017545Y012402D02*
X017603Y012402D01*
X017888Y012304D02*
X019285Y012304D01*
X019285Y012335D02*
X018870Y012335D01*
X018870Y012580D01*
X018881Y012618D01*
X018900Y012653D01*
X018928Y012680D01*
X018963Y012700D01*
X019001Y012710D01*
X019285Y012710D01*
X019285Y012335D01*
X019285Y012402D02*
X019385Y012402D01*
X019386Y012335D02*
X019800Y012335D01*
X019800Y012436D01*
X019865Y012371D01*
X019865Y012239D01*
X019800Y012174D01*
X019800Y012235D01*
X019386Y012235D01*
X019386Y012335D01*
X019386Y012304D02*
X019865Y012304D01*
X019834Y012402D02*
X019800Y012402D01*
X019800Y012205D02*
X019831Y012205D01*
X020085Y012462D02*
X020324Y012462D01*
X020735Y012236D02*
X020735Y013286D01*
X021091Y013642D01*
X021091Y013836D01*
X019935Y013836D02*
X019935Y014836D01*
X019678Y014570D02*
X019188Y014570D01*
X019263Y014669D02*
X019604Y014669D01*
X019565Y014767D02*
X019302Y014767D01*
X019302Y014866D02*
X019565Y014866D01*
X019588Y014964D02*
X019279Y014964D01*
X019228Y015063D02*
X019639Y015063D01*
X018643Y015063D02*
X018373Y015063D01*
X018313Y014964D02*
X018591Y014964D01*
X018569Y014866D02*
X018325Y014866D01*
X018325Y014767D02*
X018569Y014767D01*
X017990Y015302D02*
X017933Y015326D01*
X017738Y015326D01*
X017558Y015251D01*
X017545Y015239D01*
X017545Y016126D01*
X017965Y016126D01*
X017933Y016082D01*
X017900Y016016D01*
X017877Y015946D01*
X017867Y015886D01*
X018285Y015886D01*
X018285Y015786D01*
X017867Y015786D01*
X017877Y015726D01*
X017900Y015656D01*
X017933Y015590D01*
X017977Y015530D01*
X018029Y015478D01*
X018089Y015434D01*
X018111Y015423D01*
X017990Y015302D01*
X018047Y015358D02*
X017545Y015358D01*
X017545Y015260D02*
X017578Y015260D01*
X017545Y015457D02*
X018058Y015457D01*
X017958Y015555D02*
X017545Y015555D01*
X017545Y015654D02*
X017901Y015654D01*
X017873Y015753D02*
X017545Y015753D01*
X017545Y015851D02*
X018285Y015851D01*
X018386Y015851D02*
X019285Y015851D01*
X019285Y015886D02*
X019285Y015786D01*
X018867Y015786D01*
X018877Y015726D01*
X018900Y015656D01*
X018933Y015590D01*
X018958Y015556D01*
X018713Y015556D01*
X018737Y015590D01*
X018771Y015656D01*
X018794Y015726D01*
X018803Y015786D01*
X018386Y015786D01*
X018386Y015886D01*
X018803Y015886D01*
X018794Y015946D01*
X018771Y016016D01*
X018737Y016082D01*
X018706Y016126D01*
X018965Y016126D01*
X018933Y016082D01*
X018900Y016016D01*
X018877Y015946D01*
X018867Y015886D01*
X019285Y015886D01*
X019386Y015886D02*
X019803Y015886D01*
X019794Y015946D01*
X019771Y016016D01*
X019737Y016082D01*
X019706Y016126D01*
X019933Y016126D01*
X019920Y016114D01*
X019845Y015934D01*
X019845Y015739D01*
X019920Y015558D01*
X019923Y015556D01*
X019713Y015556D01*
X019737Y015590D01*
X019771Y015656D01*
X019794Y015726D01*
X019803Y015786D01*
X019386Y015786D01*
X019386Y015886D01*
X019386Y015851D02*
X019845Y015851D01*
X019845Y015753D02*
X019798Y015753D01*
X019770Y015654D02*
X019880Y015654D01*
X019852Y015950D02*
X019793Y015950D01*
X019755Y016048D02*
X019893Y016048D01*
X018916Y016048D02*
X018755Y016048D01*
X018793Y015950D02*
X018878Y015950D01*
X018873Y015753D02*
X018798Y015753D01*
X018770Y015654D02*
X018901Y015654D01*
X017916Y016048D02*
X017545Y016048D01*
X017545Y015950D02*
X017878Y015950D01*
X017673Y014373D02*
X017545Y014373D01*
X017545Y014274D02*
X017613Y014274D01*
X018325Y013782D02*
X018899Y013782D01*
X018850Y013683D02*
X018302Y013683D01*
X018262Y013585D02*
X018850Y013585D01*
X018850Y013486D02*
X018178Y013486D01*
X018033Y013387D02*
X018850Y013387D01*
X018850Y013289D02*
X018022Y013289D01*
X018174Y013190D02*
X018850Y013190D01*
X018850Y013092D02*
X018260Y013092D01*
X018301Y012993D02*
X018898Y012993D01*
X018958Y012698D02*
X018308Y012698D01*
X018325Y012796D02*
X019715Y012796D01*
X019713Y012698D02*
X019715Y012698D01*
X019715Y012895D02*
X018325Y012895D01*
X018268Y012599D02*
X018876Y012599D01*
X018870Y012501D02*
X018193Y012501D01*
X018068Y012402D02*
X018870Y012402D01*
X018870Y012205D02*
X018127Y012205D01*
X018220Y012106D02*
X018870Y012106D01*
X018870Y012008D02*
X018274Y012008D01*
X018300Y011909D02*
X018908Y011909D01*
X019285Y011909D02*
X019385Y011909D01*
X019385Y012008D02*
X019285Y012008D01*
X019285Y012106D02*
X019385Y012106D01*
X019385Y012205D02*
X019285Y012205D01*
X019285Y012501D02*
X019385Y012501D01*
X019385Y012599D02*
X019285Y012599D01*
X019285Y012698D02*
X019385Y012698D01*
X019335Y013386D02*
X019935Y013386D01*
X019335Y013386D02*
X019335Y013387D01*
X017648Y013289D02*
X017545Y013289D01*
X017545Y013387D02*
X017638Y013387D01*
X017785Y011712D02*
X017885Y011712D01*
X017885Y011614D02*
X017785Y011614D01*
X017785Y011515D02*
X017885Y011515D01*
X017885Y011417D02*
X017785Y011417D01*
X017719Y011318D02*
X017545Y011318D01*
X017545Y011417D02*
X017623Y011417D01*
X017952Y011318D02*
X018156Y011318D01*
X018255Y011417D02*
X018047Y011417D01*
X018179Y011515D02*
X018353Y011515D01*
X018452Y011614D02*
X018250Y011614D01*
X018289Y011712D02*
X018576Y011712D01*
X018608Y011459D02*
X019035Y011459D01*
X023000Y012106D02*
X023115Y012106D01*
X023115Y012205D02*
X023000Y012205D01*
X023555Y013249D02*
X023555Y013459D01*
X023589Y013434D01*
X023655Y013401D01*
X023725Y013378D01*
X023785Y013368D01*
X023785Y013786D01*
X023885Y013786D01*
X023885Y013368D01*
X023945Y013378D01*
X024016Y013401D01*
X024082Y013434D01*
X024125Y013466D01*
X024125Y013239D01*
X024113Y013251D01*
X023933Y013326D01*
X023738Y013326D01*
X023558Y013251D01*
X023555Y013249D01*
X023555Y013289D02*
X023648Y013289D01*
X023695Y013387D02*
X023555Y013387D01*
X023785Y013387D02*
X023885Y013387D01*
X023976Y013387D02*
X024125Y013387D01*
X024125Y013289D02*
X024022Y013289D01*
X023885Y013486D02*
X023785Y013486D01*
X023785Y013585D02*
X023885Y013585D01*
X023885Y013683D02*
X023785Y013683D01*
X023785Y013782D02*
X023885Y013782D01*
X023885Y013886D02*
X023785Y013886D01*
X023785Y014304D01*
X023725Y014294D01*
X023655Y014272D01*
X023589Y014238D01*
X023555Y014213D01*
X023555Y014423D01*
X023558Y014421D01*
X023738Y014346D01*
X023933Y014346D01*
X024113Y014421D01*
X024125Y014433D01*
X024125Y014206D01*
X024082Y014238D01*
X024016Y014272D01*
X023945Y014294D01*
X023885Y014304D01*
X023885Y013886D01*
X023885Y013979D02*
X023785Y013979D01*
X023785Y014077D02*
X023885Y014077D01*
X023885Y014176D02*
X023785Y014176D01*
X023785Y014274D02*
X023885Y014274D01*
X024007Y014274D02*
X024125Y014274D01*
X024125Y014373D02*
X023998Y014373D01*
X023673Y014373D02*
X023555Y014373D01*
X023555Y014274D02*
X023664Y014274D01*
X023115Y014274D02*
X022820Y014274D01*
X022878Y014176D02*
X023115Y014176D01*
X023115Y014077D02*
X022905Y014077D01*
X022905Y013979D02*
X023115Y013979D01*
X023115Y013880D02*
X022871Y013880D01*
X022972Y013782D02*
X023115Y013782D01*
X023115Y013683D02*
X023020Y013683D01*
X023020Y013585D02*
X023115Y013585D01*
X023115Y013486D02*
X023020Y013486D01*
X023394Y009836D02*
X023835Y009836D01*
X021791Y007968D02*
X021055Y007968D01*
X021055Y007869D02*
X021665Y007869D01*
X021566Y007771D02*
X021098Y007771D01*
X021074Y007795D02*
X021074Y007795D01*
X021197Y007672D02*
X021467Y007672D01*
X021369Y007573D02*
X021296Y007573D01*
X020854Y007704D02*
X020835Y007686D01*
X020854Y007704D02*
X020835Y007722D01*
X020854Y007704D02*
X021474Y007084D01*
X020385Y007273D02*
X020385Y007736D01*
X020235Y007886D01*
X020385Y007273D02*
X020197Y007084D01*
X024006Y007376D02*
X024125Y007376D01*
X024125Y007278D02*
X024049Y007278D01*
X024076Y005405D02*
X024125Y005405D01*
X024125Y005307D02*
X023979Y005307D01*
D22*
X020835Y005586D03*
X020835Y004836D03*
X020235Y007886D03*
X020485Y008336D03*
X021185Y008836D03*
X021835Y008336D03*
X022135Y008836D03*
X021685Y009336D03*
X020935Y009286D03*
X019835Y008886D03*
X020385Y009986D03*
X021085Y009986D03*
X020835Y011086D03*
X021605Y011206D03*
X020085Y011936D03*
X019585Y012786D03*
X018835Y012836D03*
X021535Y013636D03*
X022535Y014036D03*
X021735Y012836D03*
X022635Y012786D03*
X019935Y014836D03*
X019435Y014836D03*
D23*
X019635Y010886D02*
X019685Y010880D01*
D24*
X022295Y010836D02*
X022295Y010073D01*
X022142Y009920D01*
X022295Y010836D02*
X022745Y011286D01*
X022745Y011336D01*
X022735Y011336D01*
M02*
