G75*
G70*
%OFA0B0*%
%FSLAX24Y24*%
%IPPOS*%
%LPD*%
%AMOC8*
5,1,8,0,0,1.08239X$1,22.5*
%
%ADD10C,0.0080*%
%ADD11C,0.0040*%
%ADD12R,0.0250X0.0250*%
%ADD13C,0.0010*%
%ADD14R,0.0191X0.0195*%
%ADD15C,0.0050*%
D10*
X017335Y003336D02*
X024335Y003336D01*
X024335Y016336D01*
X017335Y016336D01*
X017335Y003336D01*
X017585Y003336D02*
X017335Y003586D01*
X017335Y004086D01*
X017585Y004336D01*
X017335Y004586D01*
X017335Y005086D01*
X017585Y005336D01*
X017335Y005586D01*
X017335Y006086D01*
X017585Y006336D01*
X017335Y006586D01*
X017335Y007086D01*
X017585Y007336D01*
X017335Y007586D01*
X017335Y008086D01*
X017585Y008336D01*
X017335Y008586D01*
X017335Y009086D01*
X017585Y009336D01*
X017335Y009586D01*
X017335Y010086D01*
X017585Y010336D01*
X017335Y010586D01*
X017335Y011086D01*
X017585Y011336D01*
X017335Y011586D01*
X017335Y012086D01*
X017585Y012336D01*
X017335Y012586D01*
X017335Y013086D01*
X017585Y013336D01*
X017335Y013586D01*
X017335Y014086D01*
X017585Y014336D01*
X017335Y014586D01*
X017335Y015086D01*
X017585Y015336D01*
X018085Y015336D01*
X018585Y015336D01*
X018835Y015586D01*
X019085Y015336D01*
X019585Y015336D01*
X019835Y015586D01*
X020085Y015336D01*
X020585Y015336D01*
X020835Y015586D01*
X021085Y015336D01*
X021585Y015336D01*
X021835Y015586D01*
X022085Y015336D01*
X022585Y015336D01*
X022835Y015586D01*
X023085Y015336D01*
X023585Y015336D01*
X023835Y015586D01*
X023835Y016086D01*
X023585Y016336D01*
X023085Y016336D01*
X022835Y016086D01*
X022585Y016336D01*
X022085Y016336D01*
X021835Y016086D01*
X021585Y016336D01*
X021085Y016336D01*
X020835Y016086D01*
X020585Y016336D01*
X020085Y016336D01*
X019835Y016086D01*
X019585Y016336D01*
X019085Y016336D01*
X018835Y016086D01*
X018585Y016336D01*
X018085Y016336D01*
X017835Y016086D01*
X017835Y015586D01*
X018085Y015336D01*
X018335Y015086D01*
X018335Y014586D01*
X018085Y014336D01*
X018335Y014086D01*
X018335Y013586D01*
X018085Y013336D01*
X018335Y013086D01*
X018335Y012586D01*
X018085Y012336D01*
X018335Y012086D01*
X018335Y011586D01*
X018085Y011336D01*
X018335Y011086D01*
X018335Y010586D01*
X018085Y010336D01*
X018335Y010086D01*
X018335Y009586D01*
X018085Y009336D01*
X018335Y009086D01*
X018335Y008586D01*
X018085Y008336D01*
X018335Y008086D01*
X018335Y007586D01*
X018085Y007336D01*
X018335Y007086D01*
X018335Y006586D01*
X018085Y006336D01*
X018335Y006086D01*
X018335Y005586D01*
X018085Y005336D01*
X018335Y005086D01*
X018335Y004586D01*
X018085Y004336D01*
X018335Y004086D01*
X018335Y003586D01*
X018085Y003336D01*
X017585Y003336D01*
X023335Y003586D02*
X023585Y003336D01*
X024085Y003336D01*
X024335Y003586D01*
X024335Y004086D01*
X024085Y004336D01*
X024335Y004586D01*
X024335Y005086D01*
X024085Y005336D01*
X024335Y005586D01*
X024335Y006086D01*
X024085Y006336D01*
X024335Y006586D01*
X024335Y007086D01*
X024085Y007336D01*
X024335Y007586D01*
X024335Y008086D01*
X024085Y008336D01*
X024335Y008586D01*
X024335Y009086D01*
X024085Y009336D01*
X024335Y009586D01*
X024335Y010086D01*
X024085Y010336D01*
X024335Y010586D01*
X024335Y011086D01*
X024085Y011336D01*
X024335Y011586D01*
X024335Y012086D01*
X024085Y012336D01*
X024335Y012586D01*
X024335Y013086D01*
X024085Y013336D01*
X024335Y013586D01*
X024335Y014086D01*
X024085Y014336D01*
X024335Y014586D01*
X024335Y015086D01*
X024085Y015336D01*
X023585Y015336D01*
X023335Y015086D01*
X023335Y014586D01*
X023585Y014336D01*
X023335Y014086D01*
X023335Y013586D01*
X023585Y013336D01*
X023335Y013086D01*
X023335Y012586D01*
X023585Y012336D01*
X023335Y012086D01*
X023335Y011586D01*
X023585Y011336D01*
X023335Y011086D01*
X023335Y010586D01*
X023585Y010336D01*
X023335Y010086D01*
X023335Y009586D01*
X023585Y009336D01*
X023335Y009086D01*
X023335Y008586D01*
X023585Y008336D01*
X023335Y008086D01*
X023335Y007586D01*
X023585Y007336D01*
X023335Y007086D01*
X023335Y006586D01*
X023585Y006336D01*
X023335Y006086D01*
X023335Y005586D01*
X023585Y005336D01*
X023335Y005086D01*
X023335Y004586D01*
X023585Y004336D01*
X023335Y004086D01*
X023335Y003586D01*
X019439Y006076D02*
X019129Y006076D01*
X019025Y006179D01*
X019129Y006283D01*
X019025Y006386D01*
X019129Y006490D01*
X019439Y006490D01*
X019439Y006721D02*
X019129Y006721D01*
X019025Y006824D01*
X019129Y006927D01*
X019025Y007031D01*
X019129Y007134D01*
X019439Y007134D01*
X019439Y007365D02*
X019129Y007365D01*
X019025Y007469D01*
X019129Y007572D01*
X019025Y007675D01*
X019129Y007779D01*
X019439Y007779D01*
X019129Y008010D02*
X019129Y008113D01*
X019025Y008113D01*
X019025Y008010D01*
X019129Y008010D01*
X019129Y008332D02*
X019232Y008435D01*
X019232Y008746D01*
X019336Y008746D02*
X019025Y008746D01*
X019025Y008435D01*
X019129Y008332D01*
X019439Y008435D02*
X019439Y008642D01*
X019336Y008746D01*
X019439Y008976D02*
X019025Y008976D01*
X019232Y008976D02*
X019439Y009183D01*
X019439Y009287D01*
X019336Y009514D02*
X019439Y009617D01*
X019439Y009927D01*
X019646Y009927D02*
X019025Y009927D01*
X019025Y009617D01*
X019129Y009514D01*
X019336Y009514D01*
X019439Y010158D02*
X019129Y010158D01*
X019025Y010261D01*
X019025Y010572D01*
X019439Y010572D01*
X019439Y010803D02*
X019439Y010906D01*
X019025Y010906D01*
X019025Y010803D02*
X019025Y011009D01*
X019025Y011232D02*
X019439Y011232D01*
X019439Y011542D01*
X019336Y011646D01*
X019025Y011646D01*
X019129Y011877D02*
X019025Y011980D01*
X019025Y012187D01*
X019129Y012290D01*
X019336Y012290D01*
X019439Y012187D01*
X019439Y011980D01*
X019336Y011877D01*
X019129Y011877D01*
X019129Y012521D02*
X019129Y012625D01*
X019025Y012625D01*
X019025Y012521D01*
X019129Y012521D01*
X019129Y012844D02*
X019025Y012947D01*
X019025Y013257D01*
X019129Y013488D02*
X019025Y013591D01*
X019025Y013902D01*
X019439Y013902D02*
X019439Y013591D01*
X019336Y013488D01*
X019129Y013488D01*
X019439Y013257D02*
X019439Y012947D01*
X019336Y012844D01*
X019129Y012844D01*
X022235Y011586D02*
X022235Y011086D01*
X022485Y010836D01*
X022235Y010586D01*
X022235Y010086D01*
X022485Y009836D01*
X022985Y009836D01*
X023235Y010086D01*
X023235Y010586D01*
X022985Y010836D01*
X023235Y011086D01*
X023235Y011586D01*
X022985Y011836D01*
X022485Y011836D01*
X022235Y011586D01*
X019749Y010906D02*
X019646Y010906D01*
D11*
X021855Y011106D02*
X022042Y011106D01*
X022136Y011199D01*
X022042Y011293D01*
X021855Y011293D01*
X021902Y011401D02*
X021855Y011447D01*
X021855Y011541D01*
X021902Y011588D01*
X021996Y011588D01*
X022042Y011541D01*
X022042Y011494D01*
X021996Y011401D01*
X022136Y011401D01*
X022136Y011588D01*
X021996Y011293D02*
X021996Y011106D01*
X021996Y010588D02*
X021996Y010401D01*
X022136Y010541D01*
X021855Y010541D01*
X021855Y010293D02*
X022042Y010293D01*
X022136Y010199D01*
X022042Y010106D01*
X021855Y010106D01*
X021996Y010106D02*
X021996Y010293D01*
X021092Y005321D02*
X020905Y005135D01*
X020905Y005321D01*
X021092Y005321D02*
X021092Y005135D01*
X021046Y005027D02*
X021046Y004840D01*
X021186Y004840D02*
X020905Y004840D01*
X020905Y004732D02*
X021186Y004732D01*
X021092Y004639D01*
X021186Y004545D01*
X020905Y004545D01*
X020952Y004438D02*
X020905Y004391D01*
X020905Y004297D01*
X020952Y004251D01*
X021139Y004438D01*
X020952Y004438D01*
X021139Y004438D02*
X021186Y004391D01*
X021186Y004297D01*
X021139Y004251D01*
X020952Y004251D01*
X020905Y004143D02*
X020905Y003956D01*
X021092Y004143D01*
X021139Y004143D01*
X021186Y004096D01*
X021186Y004003D01*
X021139Y003956D01*
X021405Y004003D02*
X021452Y003956D01*
X021405Y004003D02*
X021405Y004096D01*
X021452Y004143D01*
X021499Y004143D01*
X021546Y004096D01*
X021546Y004049D01*
X021546Y004096D02*
X021592Y004143D01*
X021639Y004143D01*
X021686Y004096D01*
X021686Y004003D01*
X021639Y003956D01*
X021905Y004003D02*
X021952Y003956D01*
X021905Y004003D02*
X021905Y004096D01*
X021952Y004143D01*
X022046Y004143D01*
X022092Y004096D01*
X022092Y004049D01*
X022046Y003956D01*
X022186Y003956D01*
X022186Y004143D01*
X022186Y004251D02*
X021999Y004251D01*
X021905Y004344D01*
X021999Y004438D01*
X022186Y004438D01*
X021686Y004445D02*
X021686Y004538D01*
X021639Y004585D01*
X021592Y004585D01*
X021546Y004538D01*
X021499Y004585D01*
X021452Y004585D01*
X021405Y004538D01*
X021405Y004445D01*
X021452Y004398D01*
X021452Y004297D02*
X021405Y004297D01*
X021405Y004251D01*
X021452Y004251D01*
X021452Y004297D01*
X021639Y004398D02*
X021686Y004445D01*
X021546Y004491D02*
X021546Y004538D01*
X021499Y004693D02*
X021405Y004786D01*
X021499Y004879D01*
X021686Y004879D01*
X021686Y004693D02*
X021499Y004693D01*
X021186Y005027D02*
X020905Y005027D01*
X020686Y005027D02*
X020405Y005027D01*
X020405Y005135D02*
X020405Y005321D01*
X020405Y005135D02*
X020592Y005321D01*
X020592Y005135D01*
X020546Y005027D02*
X020546Y004840D01*
X020686Y004840D02*
X020405Y004840D01*
X020405Y004732D02*
X020686Y004732D01*
X020592Y004639D01*
X020686Y004545D01*
X020405Y004545D01*
X020452Y004438D02*
X020499Y004438D01*
X020546Y004391D01*
X020546Y004251D01*
X020452Y004251D01*
X020405Y004297D01*
X020405Y004391D01*
X020452Y004438D01*
X020639Y004344D02*
X020546Y004251D01*
X020639Y004344D02*
X020686Y004438D01*
X020686Y004049D02*
X020405Y004049D01*
X020405Y003956D02*
X020405Y004143D01*
X020186Y004049D02*
X020092Y003956D01*
X020186Y004049D02*
X019905Y004049D01*
X019905Y003956D02*
X019905Y004143D01*
X019952Y004251D02*
X020139Y004438D01*
X019952Y004438D01*
X019905Y004391D01*
X019905Y004297D01*
X019952Y004251D01*
X020139Y004251D01*
X020186Y004297D01*
X020186Y004391D01*
X020139Y004438D01*
X020186Y004545D02*
X020092Y004639D01*
X020186Y004732D01*
X019905Y004732D01*
X019905Y004840D02*
X020186Y004840D01*
X020046Y004840D02*
X020046Y005027D01*
X020092Y005135D02*
X020092Y005321D01*
X019905Y005135D01*
X019905Y005321D01*
X019905Y005027D02*
X020186Y005027D01*
X019686Y004732D02*
X019405Y004732D01*
X019405Y004840D02*
X019405Y005027D01*
X019592Y005027D02*
X019405Y004840D01*
X019546Y004732D02*
X019546Y004545D01*
X019686Y004545D02*
X019405Y004545D01*
X019405Y004438D02*
X019686Y004438D01*
X019592Y004344D01*
X019686Y004251D01*
X019405Y004251D01*
X019452Y004143D02*
X019405Y004096D01*
X019405Y004003D01*
X019452Y003956D01*
X019499Y003956D01*
X019546Y004003D01*
X019546Y004096D01*
X019499Y004143D01*
X019452Y004143D01*
X019546Y004096D02*
X019592Y004143D01*
X019639Y004143D01*
X019686Y004096D01*
X019686Y004003D01*
X019639Y003956D01*
X019592Y003956D01*
X019546Y004003D01*
X020592Y003956D02*
X020686Y004049D01*
X020186Y004545D02*
X019905Y004545D01*
X019592Y004840D02*
X019592Y005027D01*
D12*
X019560Y003711D03*
X020060Y003711D03*
X020560Y003711D03*
X021060Y003711D03*
X021560Y003711D03*
X022060Y003711D03*
D13*
X021040Y006224D02*
X020998Y006210D01*
X020953Y006205D01*
X020908Y006209D01*
X020889Y006215D01*
X020872Y006225D01*
X020856Y006238D01*
X020835Y006265D01*
X020818Y006294D01*
X020806Y006326D01*
X020772Y006469D01*
X020760Y006516D01*
X020741Y006560D01*
X020732Y006574D01*
X020795Y006574D01*
X020800Y006565D02*
X020738Y006565D01*
X020743Y006557D02*
X020805Y006557D01*
X020810Y006548D02*
X020746Y006548D01*
X020750Y006540D02*
X020815Y006540D01*
X020820Y006531D02*
X020754Y006531D01*
X020757Y006523D02*
X020825Y006523D01*
X020830Y006514D02*
X020761Y006514D01*
X020763Y006506D02*
X020835Y006506D01*
X020840Y006497D02*
X020765Y006497D01*
X020767Y006489D02*
X020845Y006489D01*
X020850Y006480D02*
X020770Y006480D01*
X020772Y006471D02*
X020854Y006471D01*
X020859Y006463D02*
X020774Y006463D01*
X020776Y006454D02*
X020864Y006454D01*
X020869Y006446D02*
X020778Y006446D01*
X020780Y006437D02*
X020874Y006437D01*
X020879Y006429D02*
X020782Y006429D01*
X020784Y006420D02*
X020884Y006420D01*
X020889Y006412D02*
X020786Y006412D01*
X020788Y006403D02*
X020894Y006403D01*
X020899Y006395D02*
X020790Y006395D01*
X020792Y006386D02*
X020904Y006386D01*
X020909Y006377D02*
X020794Y006377D01*
X020796Y006369D02*
X020914Y006369D01*
X020919Y006360D02*
X020798Y006360D01*
X020800Y006352D02*
X020924Y006352D01*
X020927Y006346D02*
X021035Y006327D01*
X021080Y006476D01*
X021027Y006642D01*
X021106Y006642D01*
X021110Y006634D02*
X021030Y006634D01*
X021027Y006642D02*
X020970Y006719D01*
X020984Y006738D01*
X021006Y006730D01*
X021037Y006716D01*
X021055Y006705D01*
X021070Y006691D01*
X021100Y006653D01*
X021121Y006610D01*
X021136Y006557D01*
X021055Y006557D01*
X021062Y006557D02*
X021014Y006557D01*
X021013Y006558D02*
X021002Y006570D01*
X020989Y006579D01*
X020974Y006585D01*
X020964Y006587D01*
X020953Y006588D01*
X020953Y006741D01*
X020981Y006738D01*
X021032Y006657D01*
X021084Y006478D01*
X021041Y006313D01*
X020921Y006334D01*
X020818Y006507D01*
X020727Y006674D01*
X020599Y006631D01*
X020564Y006476D01*
X020705Y006191D01*
X020557Y006472D01*
X020593Y006634D01*
X020760Y006634D01*
X020755Y006642D02*
X020618Y006642D01*
X020608Y006634D02*
X020522Y006634D01*
X020526Y006642D02*
X020633Y006642D01*
X020643Y006651D02*
X020750Y006651D01*
X020745Y006659D02*
X020669Y006659D01*
X020658Y006651D02*
X020530Y006651D01*
X020534Y006659D02*
X020684Y006659D01*
X020694Y006668D02*
X020740Y006668D01*
X020738Y006671D02*
X020927Y006346D01*
X020916Y006343D02*
X021049Y006343D01*
X021047Y006335D02*
X020921Y006335D01*
X020911Y006352D02*
X021052Y006352D01*
X021054Y006360D02*
X020906Y006360D01*
X020901Y006369D02*
X020958Y006369D01*
X020959Y006368D02*
X020975Y006365D01*
X020992Y006367D01*
X021006Y006374D01*
X021018Y006384D01*
X021026Y006397D01*
X021033Y006415D01*
X021036Y006433D01*
X021038Y006467D01*
X021036Y006501D01*
X021032Y006521D01*
X021025Y006541D01*
X021013Y006558D01*
X021006Y006565D02*
X021059Y006565D01*
X021052Y006565D02*
X021134Y006565D01*
X021136Y006557D02*
X021141Y006502D01*
X021141Y006431D01*
X021135Y006375D01*
X021119Y006321D01*
X021093Y006270D01*
X021079Y006251D01*
X021061Y006236D01*
X021040Y006224D01*
X021039Y006224D02*
X020874Y006224D01*
X020863Y006232D02*
X021055Y006232D01*
X021067Y006241D02*
X020854Y006241D01*
X020847Y006249D02*
X021077Y006249D01*
X021084Y006258D02*
X020841Y006258D01*
X020834Y006266D02*
X021091Y006266D01*
X021096Y006275D02*
X020829Y006275D01*
X020825Y006284D02*
X021100Y006284D01*
X021105Y006292D02*
X020820Y006292D01*
X020816Y006301D02*
X021109Y006301D01*
X021113Y006309D02*
X020813Y006309D01*
X020810Y006318D02*
X021118Y006318D01*
X021121Y006326D02*
X020806Y006326D01*
X020804Y006335D02*
X020992Y006335D01*
X020966Y006326D02*
X021045Y006326D01*
X021043Y006318D02*
X021015Y006318D01*
X021038Y006335D02*
X021123Y006335D01*
X021126Y006343D02*
X021040Y006343D01*
X021043Y006352D02*
X021129Y006352D01*
X021131Y006360D02*
X021045Y006360D01*
X021048Y006369D02*
X021134Y006369D01*
X021136Y006377D02*
X021051Y006377D01*
X021058Y006377D02*
X021010Y006377D01*
X021019Y006386D02*
X021060Y006386D01*
X021053Y006386D02*
X021137Y006386D01*
X021137Y006395D02*
X021056Y006395D01*
X021063Y006395D02*
X021025Y006395D01*
X021029Y006403D02*
X021065Y006403D01*
X021058Y006403D02*
X021138Y006403D01*
X021139Y006412D02*
X021061Y006412D01*
X021067Y006412D02*
X021032Y006412D01*
X021034Y006420D02*
X021069Y006420D01*
X021064Y006420D02*
X021140Y006420D01*
X021141Y006429D02*
X021066Y006429D01*
X021072Y006429D02*
X021036Y006429D01*
X021037Y006437D02*
X021074Y006437D01*
X021069Y006437D02*
X021141Y006437D01*
X021141Y006446D02*
X021071Y006446D01*
X021076Y006446D02*
X021037Y006446D01*
X021038Y006454D02*
X021078Y006454D01*
X021074Y006454D02*
X021141Y006454D01*
X021141Y006463D02*
X021076Y006463D01*
X021081Y006463D02*
X021038Y006463D01*
X021038Y006471D02*
X021083Y006471D01*
X021079Y006471D02*
X021141Y006471D01*
X021141Y006480D02*
X021079Y006480D01*
X021084Y006480D02*
X021038Y006480D01*
X021037Y006489D02*
X021081Y006489D01*
X021076Y006489D02*
X021141Y006489D01*
X021141Y006497D02*
X021074Y006497D01*
X021079Y006497D02*
X021037Y006497D01*
X021036Y006506D02*
X021076Y006506D01*
X021071Y006506D02*
X021141Y006506D01*
X021140Y006514D02*
X021068Y006514D01*
X021074Y006514D02*
X021034Y006514D01*
X021032Y006523D02*
X021071Y006523D01*
X021066Y006523D02*
X021139Y006523D01*
X021138Y006531D02*
X021063Y006531D01*
X021069Y006531D02*
X021028Y006531D01*
X021025Y006540D02*
X021066Y006540D01*
X021060Y006540D02*
X021138Y006540D01*
X021137Y006548D02*
X021057Y006548D01*
X021064Y006548D02*
X021020Y006548D01*
X020996Y006574D02*
X021057Y006574D01*
X021049Y006574D02*
X021131Y006574D01*
X021129Y006583D02*
X021046Y006583D01*
X021054Y006583D02*
X020980Y006583D01*
X020953Y006591D02*
X021052Y006591D01*
X021044Y006591D02*
X021127Y006591D01*
X021124Y006600D02*
X021041Y006600D01*
X021049Y006600D02*
X020953Y006600D01*
X020953Y006608D02*
X021047Y006608D01*
X021038Y006608D02*
X021122Y006608D01*
X021118Y006617D02*
X021036Y006617D01*
X021044Y006617D02*
X020953Y006617D01*
X020953Y006625D02*
X021042Y006625D01*
X021033Y006625D02*
X021114Y006625D01*
X021101Y006651D02*
X021021Y006651D01*
X021015Y006659D02*
X021095Y006659D01*
X021089Y006668D02*
X021008Y006668D01*
X021002Y006676D02*
X021082Y006676D01*
X021075Y006685D02*
X020996Y006685D01*
X020989Y006694D02*
X021068Y006694D01*
X021058Y006702D02*
X020983Y006702D01*
X020977Y006711D02*
X021046Y006711D01*
X021030Y006719D02*
X020971Y006719D01*
X020977Y006728D02*
X021012Y006728D01*
X020993Y006719D02*
X020953Y006719D01*
X020953Y006711D02*
X020999Y006711D01*
X021004Y006702D02*
X020953Y006702D01*
X020953Y006694D02*
X021009Y006694D01*
X021015Y006685D02*
X020953Y006685D01*
X020953Y006676D02*
X021020Y006676D01*
X021026Y006668D02*
X020953Y006668D01*
X020953Y006659D02*
X021031Y006659D01*
X021034Y006651D02*
X020953Y006651D01*
X020953Y006642D02*
X021037Y006642D01*
X021039Y006634D02*
X020953Y006634D01*
X020870Y006600D02*
X020768Y006600D01*
X020763Y006608D02*
X020867Y006608D01*
X020864Y006617D02*
X020759Y006617D01*
X020754Y006625D02*
X020861Y006625D01*
X020858Y006634D02*
X020749Y006634D01*
X020745Y006642D02*
X020855Y006642D01*
X020851Y006651D02*
X020740Y006651D01*
X020735Y006659D02*
X020848Y006659D01*
X020872Y006594D01*
X020887Y006526D01*
X020903Y006446D01*
X020914Y006416D01*
X020931Y006388D01*
X020944Y006376D01*
X020959Y006368D01*
X020942Y006377D02*
X020896Y006377D01*
X020891Y006386D02*
X020934Y006386D01*
X020927Y006395D02*
X020885Y006395D01*
X020880Y006403D02*
X020922Y006403D01*
X020917Y006412D02*
X020875Y006412D01*
X020870Y006420D02*
X020913Y006420D01*
X020910Y006429D02*
X020865Y006429D01*
X020860Y006437D02*
X020907Y006437D01*
X020904Y006446D02*
X020855Y006446D01*
X020850Y006454D02*
X020902Y006454D01*
X020900Y006463D02*
X020845Y006463D01*
X020840Y006471D02*
X020898Y006471D01*
X020897Y006480D02*
X020835Y006480D01*
X020829Y006489D02*
X020895Y006489D01*
X020893Y006497D02*
X020824Y006497D01*
X020819Y006506D02*
X020891Y006506D01*
X020890Y006514D02*
X020815Y006514D01*
X020810Y006523D02*
X020888Y006523D01*
X020886Y006531D02*
X020805Y006531D01*
X020801Y006540D02*
X020884Y006540D01*
X020882Y006548D02*
X020796Y006548D01*
X020791Y006557D02*
X020881Y006557D01*
X020879Y006565D02*
X020787Y006565D01*
X020782Y006574D02*
X020877Y006574D01*
X020875Y006583D02*
X020777Y006583D01*
X020773Y006591D02*
X020873Y006591D01*
X020848Y006659D02*
X020832Y006689D01*
X020812Y006716D01*
X020799Y006729D01*
X020782Y006739D01*
X020743Y006752D01*
X020701Y006756D01*
X020660Y006753D01*
X020634Y006747D01*
X020610Y006737D01*
X020587Y006722D01*
X020558Y006693D01*
X020534Y006660D01*
X020517Y006623D01*
X020505Y006584D01*
X020498Y006532D01*
X020496Y006480D01*
X020503Y006379D01*
X020512Y006343D01*
X020527Y006309D01*
X020647Y006309D01*
X020643Y006309D02*
X020705Y006309D01*
X020705Y006301D02*
X020648Y006301D01*
X020651Y006301D02*
X020533Y006301D01*
X020527Y006309D02*
X020557Y006262D01*
X020574Y006242D01*
X020595Y006225D01*
X020618Y006213D01*
X020668Y006196D01*
X020691Y006192D01*
X020705Y006191D01*
X020705Y006343D01*
X020703Y006343D01*
X020683Y006344D01*
X020664Y006350D01*
X020646Y006361D01*
X020628Y006379D01*
X020614Y006401D01*
X020605Y006425D01*
X020602Y006448D01*
X020602Y006501D01*
X020605Y006526D01*
X020614Y006549D01*
X020626Y006570D01*
X020638Y006582D01*
X020653Y006591D01*
X020584Y006591D01*
X020590Y006591D02*
X020507Y006591D01*
X020505Y006583D02*
X020589Y006583D01*
X020582Y006583D02*
X020639Y006583D01*
X020630Y006574D02*
X020580Y006574D01*
X020587Y006574D02*
X020504Y006574D01*
X020503Y006565D02*
X020585Y006565D01*
X020578Y006565D02*
X020624Y006565D01*
X020618Y006557D02*
X020576Y006557D01*
X020583Y006557D02*
X020502Y006557D01*
X020500Y006548D02*
X020581Y006548D01*
X020574Y006548D02*
X020613Y006548D01*
X020610Y006540D02*
X020572Y006540D01*
X020579Y006540D02*
X020499Y006540D01*
X020498Y006531D02*
X020577Y006531D01*
X020571Y006531D02*
X020607Y006531D01*
X020605Y006523D02*
X020569Y006523D01*
X020575Y006523D02*
X020498Y006523D01*
X020498Y006514D02*
X020573Y006514D01*
X020567Y006514D02*
X020604Y006514D01*
X020603Y006506D02*
X020565Y006506D01*
X020571Y006506D02*
X020497Y006506D01*
X020497Y006497D02*
X020569Y006497D01*
X020563Y006497D02*
X020602Y006497D01*
X020602Y006489D02*
X020561Y006489D01*
X020567Y006489D02*
X020497Y006489D01*
X020496Y006480D02*
X020565Y006480D01*
X020559Y006480D02*
X020602Y006480D01*
X020602Y006471D02*
X020558Y006471D01*
X020567Y006471D02*
X020497Y006471D01*
X020498Y006463D02*
X020571Y006463D01*
X020562Y006463D02*
X020602Y006463D01*
X020602Y006454D02*
X020567Y006454D01*
X020575Y006454D02*
X020498Y006454D01*
X020499Y006446D02*
X020579Y006446D01*
X020571Y006446D02*
X020603Y006446D01*
X020604Y006437D02*
X020576Y006437D01*
X020584Y006437D02*
X020499Y006437D01*
X020500Y006429D02*
X020588Y006429D01*
X020580Y006429D02*
X020605Y006429D01*
X020607Y006420D02*
X020585Y006420D01*
X020592Y006420D02*
X020501Y006420D01*
X020501Y006412D02*
X020596Y006412D01*
X020589Y006412D02*
X020610Y006412D01*
X020614Y006403D02*
X020594Y006403D01*
X020601Y006403D02*
X020502Y006403D01*
X020502Y006395D02*
X020605Y006395D01*
X020598Y006395D02*
X020618Y006395D01*
X020624Y006386D02*
X020603Y006386D01*
X020609Y006386D02*
X020503Y006386D01*
X020504Y006377D02*
X020613Y006377D01*
X020607Y006377D02*
X020630Y006377D01*
X020639Y006369D02*
X020612Y006369D01*
X020617Y006369D02*
X020506Y006369D01*
X020508Y006360D02*
X020622Y006360D01*
X020616Y006360D02*
X020647Y006360D01*
X020661Y006352D02*
X020621Y006352D01*
X020626Y006352D02*
X020510Y006352D01*
X020512Y006343D02*
X020630Y006343D01*
X020625Y006343D02*
X020699Y006343D01*
X020705Y006335D02*
X020630Y006335D01*
X020634Y006335D02*
X020516Y006335D01*
X020520Y006326D02*
X020639Y006326D01*
X020634Y006326D02*
X020705Y006326D01*
X020705Y006318D02*
X020639Y006318D01*
X020643Y006318D02*
X020523Y006318D01*
X020538Y006292D02*
X020655Y006292D01*
X020652Y006292D02*
X020705Y006292D01*
X020705Y006284D02*
X020657Y006284D01*
X020660Y006284D02*
X020544Y006284D01*
X020549Y006275D02*
X020664Y006275D01*
X020661Y006275D02*
X020705Y006275D01*
X020705Y006266D02*
X020666Y006266D01*
X020668Y006266D02*
X020555Y006266D01*
X020561Y006258D02*
X020672Y006258D01*
X020670Y006258D02*
X020705Y006258D01*
X020705Y006249D02*
X020675Y006249D01*
X020677Y006249D02*
X020568Y006249D01*
X020576Y006241D02*
X020681Y006241D01*
X020679Y006241D02*
X020705Y006241D01*
X020705Y006232D02*
X020684Y006232D01*
X020685Y006232D02*
X020586Y006232D01*
X020598Y006224D02*
X020689Y006224D01*
X020688Y006224D02*
X020705Y006224D01*
X020705Y006215D02*
X020693Y006215D01*
X020694Y006215D02*
X020614Y006215D01*
X020637Y006207D02*
X020698Y006207D01*
X020697Y006207D02*
X020705Y006207D01*
X020702Y006198D02*
X020705Y006198D01*
X020702Y006198D02*
X020663Y006198D01*
X020802Y006343D02*
X020943Y006343D01*
X020995Y006369D02*
X021056Y006369D01*
X021014Y006215D02*
X020889Y006215D01*
X020935Y006207D02*
X020968Y006207D01*
X020790Y006583D02*
X020722Y006583D01*
X020719Y006586D02*
X020703Y006593D01*
X020687Y006597D01*
X020669Y006596D01*
X020653Y006591D01*
X020708Y006591D02*
X020785Y006591D01*
X020780Y006600D02*
X020586Y006600D01*
X020592Y006600D02*
X020510Y006600D01*
X020512Y006608D02*
X020594Y006608D01*
X020588Y006608D02*
X020775Y006608D01*
X020770Y006617D02*
X020590Y006617D01*
X020596Y006617D02*
X020515Y006617D01*
X020517Y006625D02*
X020598Y006625D01*
X020591Y006625D02*
X020765Y006625D01*
X020738Y006671D02*
X020724Y006678D01*
X020593Y006634D01*
X020540Y006668D02*
X020709Y006668D01*
X020720Y006676D02*
X020728Y006676D01*
X020731Y006668D02*
X020844Y006668D01*
X020839Y006676D02*
X020546Y006676D01*
X020552Y006685D02*
X020834Y006685D01*
X020829Y006694D02*
X020558Y006694D01*
X020567Y006702D02*
X020823Y006702D01*
X020816Y006711D02*
X020576Y006711D01*
X020585Y006719D02*
X020809Y006719D01*
X020800Y006728D02*
X020596Y006728D01*
X020609Y006736D02*
X020787Y006736D01*
X020765Y006745D02*
X020628Y006745D01*
X020665Y006753D02*
X020731Y006753D01*
X020719Y006586D02*
X020732Y006574D01*
X020953Y006728D02*
X020988Y006728D01*
X020989Y006736D02*
X020983Y006736D01*
X020953Y006736D01*
X021096Y006838D02*
X020289Y006838D01*
X020142Y007001D01*
X020583Y007001D01*
X020705Y007001D01*
X020733Y007001D01*
X020736Y007000D02*
X020709Y007009D01*
X020708Y007009D01*
X020707Y007009D01*
X020706Y007008D01*
X020705Y007006D01*
X020705Y007001D01*
X020699Y007010D02*
X020702Y007013D01*
X020700Y007013D01*
X020697Y007014D01*
X020693Y007016D01*
X020690Y007018D01*
X020571Y007018D01*
X020582Y007010D02*
X020699Y007010D01*
X020690Y007018D02*
X020668Y007030D01*
X020648Y007047D01*
X020633Y007068D01*
X020622Y007096D01*
X020615Y007125D01*
X020615Y007162D01*
X020622Y007198D01*
X020636Y007228D01*
X020657Y007254D01*
X020684Y007273D01*
X020715Y007285D01*
X020793Y007297D01*
X020871Y007297D01*
X020911Y007289D01*
X020947Y007273D01*
X020979Y007249D01*
X021004Y007218D01*
X021015Y007197D01*
X021022Y007175D01*
X021023Y007152D01*
X021021Y007109D01*
X021018Y007093D01*
X021011Y007079D01*
X020989Y007050D01*
X020961Y007026D01*
X020933Y007009D01*
X020901Y006998D01*
X020868Y006994D01*
X020767Y006995D01*
X020736Y007000D01*
X020674Y007027D02*
X020559Y007027D01*
X020554Y007031D02*
X020582Y007010D01*
X020554Y007031D02*
X020531Y007057D01*
X020514Y007087D01*
X020503Y007120D01*
X020497Y007168D01*
X020498Y007216D01*
X020505Y007264D01*
X020517Y007300D01*
X021117Y007300D01*
X021096Y007336D01*
X021070Y007368D01*
X021035Y007399D01*
X020994Y007422D01*
X020911Y007449D01*
X020825Y007460D01*
X020737Y007455D01*
X020683Y007442D01*
X020632Y007420D01*
X020585Y007390D01*
X020558Y007364D01*
X020535Y007334D01*
X021097Y007334D01*
X021102Y007326D02*
X020530Y007326D01*
X020535Y007334D02*
X020517Y007300D01*
X020514Y007292D02*
X020757Y007292D01*
X020710Y007283D02*
X020512Y007283D01*
X020509Y007275D02*
X020688Y007275D01*
X020674Y007266D02*
X020506Y007266D01*
X020504Y007257D02*
X020662Y007257D01*
X020653Y007249D02*
X020503Y007249D01*
X020502Y007240D02*
X020646Y007240D01*
X020639Y007232D02*
X020500Y007232D01*
X020499Y007223D02*
X020634Y007223D01*
X020630Y007215D02*
X020498Y007215D01*
X020498Y007206D02*
X020626Y007206D01*
X020622Y007198D02*
X020498Y007198D01*
X020498Y007189D02*
X020621Y007189D01*
X020619Y007181D02*
X020498Y007181D01*
X020497Y007172D02*
X020617Y007172D01*
X020615Y007163D02*
X020498Y007163D01*
X020499Y007155D02*
X020615Y007155D01*
X020615Y007146D02*
X020500Y007146D01*
X020501Y007138D02*
X020615Y007138D01*
X020615Y007129D02*
X020502Y007129D01*
X020503Y007121D02*
X020616Y007121D01*
X020618Y007112D02*
X020506Y007112D01*
X020509Y007104D02*
X020620Y007104D01*
X020622Y007095D02*
X020511Y007095D01*
X020514Y007087D02*
X020626Y007087D01*
X020629Y007078D02*
X020519Y007078D01*
X020524Y007069D02*
X020633Y007069D01*
X020639Y007061D02*
X020529Y007061D01*
X020535Y007052D02*
X020645Y007052D01*
X020652Y007044D02*
X020542Y007044D01*
X020550Y007035D02*
X020662Y007035D01*
X020909Y007001D02*
X021052Y007001D01*
X021055Y007004D02*
X021093Y007039D01*
X021105Y007053D01*
X021114Y007068D01*
X021135Y007120D01*
X021139Y007139D01*
X021140Y007217D01*
X021133Y007260D01*
X021117Y007300D01*
X021121Y007292D02*
X020899Y007292D01*
X020925Y007283D02*
X021124Y007283D01*
X021127Y007275D02*
X020944Y007275D01*
X020956Y007266D02*
X021131Y007266D01*
X021134Y007257D02*
X020968Y007257D01*
X020979Y007249D02*
X021135Y007249D01*
X021136Y007240D02*
X020986Y007240D01*
X020993Y007232D02*
X021138Y007232D01*
X021139Y007223D02*
X021000Y007223D01*
X021006Y007215D02*
X021140Y007215D01*
X021140Y007206D02*
X021011Y007206D01*
X021015Y007198D02*
X021140Y007198D01*
X021140Y007189D02*
X021018Y007189D01*
X021020Y007181D02*
X021140Y007181D01*
X021140Y007172D02*
X021022Y007172D01*
X021022Y007163D02*
X021140Y007163D01*
X021140Y007155D02*
X021023Y007155D01*
X021023Y007146D02*
X021140Y007146D01*
X021139Y007138D02*
X021023Y007138D01*
X021022Y007129D02*
X021137Y007129D01*
X021136Y007121D02*
X021022Y007121D01*
X021022Y007112D02*
X021132Y007112D01*
X021129Y007104D02*
X021020Y007104D01*
X021019Y007095D02*
X021125Y007095D01*
X021122Y007087D02*
X021015Y007087D01*
X021011Y007078D02*
X021118Y007078D01*
X021115Y007069D02*
X021004Y007069D01*
X020997Y007061D02*
X021110Y007061D01*
X021105Y007052D02*
X020991Y007052D01*
X020982Y007044D02*
X021098Y007044D01*
X021089Y007035D02*
X020972Y007035D01*
X020962Y007027D02*
X021080Y007027D01*
X021071Y007018D02*
X020948Y007018D01*
X020933Y007010D02*
X021062Y007010D01*
X021055Y007004D02*
X021045Y006995D01*
X021046Y006993D01*
X021049Y006990D01*
X021128Y006991D01*
X021099Y006838D01*
X021096Y006838D01*
X021100Y006839D02*
X020289Y006839D01*
X020281Y006847D02*
X021101Y006847D01*
X021103Y006856D02*
X020273Y006856D01*
X020266Y006864D02*
X021104Y006864D01*
X021106Y006873D02*
X020258Y006873D01*
X020250Y006882D02*
X021108Y006882D01*
X021109Y006890D02*
X020243Y006890D01*
X020235Y006899D02*
X021111Y006899D01*
X021113Y006907D02*
X020227Y006907D01*
X020219Y006916D02*
X021114Y006916D01*
X021116Y006924D02*
X020212Y006924D01*
X020204Y006933D02*
X021117Y006933D01*
X021119Y006941D02*
X020196Y006941D01*
X020189Y006950D02*
X021121Y006950D01*
X021122Y006958D02*
X020181Y006958D01*
X020173Y006967D02*
X021124Y006967D01*
X021125Y006976D02*
X020165Y006976D01*
X020158Y006984D02*
X021127Y006984D01*
X021047Y006993D02*
X020150Y006993D01*
X020521Y007309D02*
X021112Y007309D01*
X021107Y007317D02*
X020526Y007317D01*
X020541Y007343D02*
X021090Y007343D01*
X021084Y007351D02*
X020548Y007351D01*
X020554Y007360D02*
X021077Y007360D01*
X021070Y007369D02*
X020562Y007369D01*
X020571Y007377D02*
X021060Y007377D01*
X021051Y007386D02*
X020581Y007386D01*
X020592Y007394D02*
X021041Y007394D01*
X021029Y007403D02*
X020605Y007403D01*
X020618Y007411D02*
X021014Y007411D01*
X020999Y007420D02*
X020631Y007420D01*
X020650Y007428D02*
X020975Y007428D01*
X020948Y007437D02*
X020670Y007437D01*
X020696Y007445D02*
X020921Y007445D01*
X020870Y007454D02*
X020733Y007454D01*
X020706Y007522D02*
X020661Y007522D01*
X020663Y007522D02*
X020622Y007529D01*
X020582Y007544D01*
X020563Y007556D01*
X020547Y007570D01*
X020533Y007588D01*
X020510Y007638D01*
X020497Y007692D01*
X020496Y007756D01*
X020505Y007820D01*
X020519Y007861D01*
X020541Y007898D01*
X020540Y007898D02*
X020637Y007898D01*
X020629Y007890D02*
X020536Y007890D01*
X020541Y007898D02*
X020568Y007931D01*
X020570Y007933D01*
X020570Y007936D01*
X020569Y007938D01*
X020568Y007940D01*
X020565Y007941D01*
X020524Y007950D01*
X020513Y007953D01*
X020512Y007954D01*
X020511Y007955D01*
X020511Y007957D01*
X020511Y008116D01*
X020519Y008113D01*
X020571Y008099D01*
X020624Y008095D01*
X020795Y008096D01*
X020795Y007935D01*
X020762Y007935D01*
X020719Y007932D01*
X020676Y007924D01*
X020562Y007924D01*
X020569Y007932D02*
X020720Y007932D01*
X020676Y007924D02*
X020669Y007922D01*
X020659Y007918D01*
X020649Y007911D01*
X020620Y007881D01*
X020613Y007869D01*
X020607Y007855D01*
X020601Y007813D01*
X020603Y007752D01*
X020607Y007733D01*
X020616Y007715D01*
X020628Y007700D01*
X020639Y007692D01*
X020651Y007686D01*
X020664Y007683D01*
X020689Y007683D01*
X020712Y007687D01*
X020734Y007696D01*
X020747Y007705D01*
X020757Y007716D01*
X020769Y007736D01*
X020863Y007736D01*
X020863Y007737D02*
X020852Y007677D01*
X020833Y007618D01*
X020819Y007591D01*
X020799Y007567D01*
X020775Y007547D01*
X020741Y007530D01*
X020704Y007522D01*
X020663Y007522D01*
X020618Y007531D02*
X020743Y007531D01*
X020760Y007539D02*
X020595Y007539D01*
X020576Y007548D02*
X020776Y007548D01*
X020787Y007556D02*
X020562Y007556D01*
X020553Y007565D02*
X020797Y007565D01*
X020805Y007574D02*
X020545Y007574D01*
X020538Y007582D02*
X020812Y007582D01*
X020819Y007591D02*
X020532Y007591D01*
X020528Y007599D02*
X020824Y007599D01*
X020828Y007608D02*
X020524Y007608D01*
X020520Y007616D02*
X020832Y007616D01*
X020836Y007625D02*
X020516Y007625D01*
X020512Y007633D02*
X020838Y007633D01*
X020841Y007642D02*
X020509Y007642D01*
X020507Y007650D02*
X020844Y007650D01*
X020847Y007659D02*
X020505Y007659D01*
X020503Y007668D02*
X020850Y007668D01*
X020852Y007676D02*
X020501Y007676D01*
X020499Y007685D02*
X020658Y007685D01*
X020637Y007693D02*
X020497Y007693D01*
X020497Y007702D02*
X020627Y007702D01*
X020620Y007710D02*
X020497Y007710D01*
X020497Y007719D02*
X020614Y007719D01*
X020610Y007727D02*
X020497Y007727D01*
X020496Y007736D02*
X020607Y007736D01*
X020605Y007744D02*
X020496Y007744D01*
X020496Y007753D02*
X020603Y007753D01*
X020603Y007761D02*
X020497Y007761D01*
X020498Y007770D02*
X020603Y007770D01*
X020603Y007779D02*
X020499Y007779D01*
X020501Y007787D02*
X020602Y007787D01*
X020602Y007796D02*
X020502Y007796D01*
X020503Y007804D02*
X020602Y007804D01*
X020601Y007813D02*
X020504Y007813D01*
X020506Y007821D02*
X020603Y007821D01*
X020604Y007830D02*
X020509Y007830D01*
X020512Y007838D02*
X020605Y007838D01*
X020606Y007847D02*
X020515Y007847D01*
X020517Y007855D02*
X020608Y007855D01*
X020611Y007864D02*
X020521Y007864D01*
X020526Y007873D02*
X020615Y007873D01*
X020620Y007881D02*
X020531Y007881D01*
X020548Y007907D02*
X020645Y007907D01*
X020656Y007915D02*
X020555Y007915D01*
X020566Y007941D02*
X020795Y007941D01*
X020799Y007941D02*
X021131Y007941D01*
X021132Y007935D02*
X021141Y007867D01*
X021142Y007798D01*
X021133Y007729D01*
X021120Y007681D01*
X021099Y007635D01*
X021077Y007603D01*
X021048Y007576D01*
X021014Y007556D01*
X020977Y007542D01*
X020938Y007537D01*
X020939Y007536D01*
X020939Y007701D01*
X020939Y007703D01*
X020941Y007703D01*
X020963Y007706D01*
X020984Y007713D01*
X021002Y007726D01*
X021017Y007742D01*
X021027Y007761D01*
X021034Y007784D01*
X021036Y007808D01*
X021034Y007862D01*
X021032Y007877D01*
X021027Y007892D01*
X021018Y007905D01*
X021009Y007916D01*
X020997Y007924D01*
X021134Y007924D01*
X021133Y007932D02*
X020973Y007932D01*
X020983Y007930D02*
X020962Y007935D01*
X020940Y007935D01*
X020918Y007930D01*
X020914Y007928D01*
X020909Y007925D01*
X020898Y007913D01*
X020888Y007895D01*
X020881Y007876D01*
X020872Y007824D01*
X020863Y007737D01*
X020864Y007744D02*
X020772Y007744D01*
X020769Y007736D02*
X020777Y007757D01*
X020781Y007779D01*
X020787Y007836D01*
X020794Y007875D01*
X020805Y007913D01*
X020810Y007921D01*
X020816Y007928D01*
X020823Y007933D01*
X020823Y007935D01*
X020799Y007935D01*
X020799Y008095D01*
X020989Y008095D01*
X021018Y008091D01*
X021046Y008081D01*
X021069Y008064D01*
X021088Y008042D01*
X021116Y007991D01*
X021132Y007935D01*
X021128Y007949D02*
X020799Y007949D01*
X020795Y007949D02*
X020527Y007949D01*
X020511Y007958D02*
X020795Y007958D01*
X020799Y007958D02*
X021126Y007958D01*
X021123Y007967D02*
X020799Y007967D01*
X020795Y007967D02*
X020511Y007967D01*
X020511Y007975D02*
X020795Y007975D01*
X020799Y007975D02*
X021120Y007975D01*
X021118Y007984D02*
X020799Y007984D01*
X020795Y007984D02*
X020511Y007984D01*
X020511Y007992D02*
X020795Y007992D01*
X020799Y007992D02*
X021115Y007992D01*
X021110Y008001D02*
X020799Y008001D01*
X020795Y008001D02*
X020511Y008001D01*
X020511Y008009D02*
X020795Y008009D01*
X020799Y008009D02*
X021106Y008009D01*
X021101Y008018D02*
X020799Y008018D01*
X020795Y008018D02*
X020511Y008018D01*
X020511Y008026D02*
X020795Y008026D01*
X020799Y008026D02*
X021097Y008026D01*
X021092Y008035D02*
X020799Y008035D01*
X020795Y008035D02*
X020511Y008035D01*
X020511Y008043D02*
X020795Y008043D01*
X020799Y008043D02*
X021087Y008043D01*
X021080Y008052D02*
X020799Y008052D01*
X020795Y008052D02*
X020511Y008052D01*
X020511Y008061D02*
X020795Y008061D01*
X020799Y008061D02*
X021073Y008061D01*
X021062Y008069D02*
X020799Y008069D01*
X020795Y008069D02*
X020511Y008069D01*
X020511Y008078D02*
X020795Y008078D01*
X020799Y008078D02*
X021050Y008078D01*
X021032Y008086D02*
X020799Y008086D01*
X020795Y008086D02*
X020511Y008086D01*
X020511Y008095D02*
X020795Y008095D01*
X020799Y008095D02*
X020993Y008095D01*
X021097Y008203D02*
X020511Y008202D01*
X020511Y008366D01*
X020819Y008366D01*
X020853Y008369D01*
X020886Y008377D01*
X020919Y008392D01*
X020947Y008413D01*
X020969Y008440D01*
X020980Y008460D01*
X020988Y008481D01*
X020991Y008503D01*
X020991Y008564D01*
X020986Y008588D01*
X020985Y008594D01*
X020985Y008595D01*
X021137Y008595D01*
X021140Y008541D01*
X021137Y008514D01*
X021128Y008487D01*
X021114Y008463D01*
X021091Y008428D01*
X020959Y008428D01*
X020952Y008419D02*
X021085Y008419D01*
X021080Y008413D02*
X021091Y008428D01*
X021097Y008436D02*
X020966Y008436D01*
X020972Y008445D02*
X021103Y008445D01*
X021108Y008454D02*
X020977Y008454D01*
X020981Y008462D02*
X021114Y008462D01*
X021119Y008471D02*
X020984Y008471D01*
X020987Y008479D02*
X021124Y008479D01*
X021128Y008488D02*
X020989Y008488D01*
X020990Y008496D02*
X021131Y008496D01*
X021134Y008505D02*
X020991Y008505D01*
X020991Y008513D02*
X021137Y008513D01*
X021138Y008522D02*
X020991Y008522D01*
X020991Y008530D02*
X021139Y008530D01*
X021140Y008539D02*
X020991Y008539D01*
X020991Y008547D02*
X021140Y008547D01*
X021140Y008556D02*
X020991Y008556D01*
X020991Y008565D02*
X021139Y008565D01*
X021139Y008573D02*
X020990Y008573D01*
X020988Y008582D02*
X021138Y008582D01*
X021138Y008590D02*
X020986Y008590D01*
X020944Y008411D02*
X021077Y008411D01*
X021080Y008413D02*
X021064Y008400D01*
X021023Y008373D01*
X021011Y008365D01*
X021009Y008359D01*
X021011Y008355D01*
X021124Y008355D01*
X021097Y008203D01*
X021098Y008206D02*
X020511Y008206D01*
X020511Y008214D02*
X021099Y008214D01*
X021101Y008223D02*
X020511Y008223D01*
X020511Y008231D02*
X021102Y008231D01*
X021104Y008240D02*
X020511Y008240D01*
X020511Y008248D02*
X021105Y008248D01*
X021107Y008257D02*
X020511Y008257D01*
X020511Y008266D02*
X021109Y008266D01*
X021110Y008274D02*
X020511Y008274D01*
X020511Y008283D02*
X021112Y008283D01*
X021113Y008291D02*
X020511Y008291D01*
X020511Y008300D02*
X021115Y008300D01*
X021116Y008308D02*
X020511Y008308D01*
X020511Y008317D02*
X021118Y008317D01*
X021119Y008325D02*
X020511Y008325D01*
X020511Y008334D02*
X021121Y008334D01*
X021122Y008342D02*
X020511Y008342D01*
X020511Y008351D02*
X021124Y008351D01*
X021067Y008402D02*
X020933Y008402D01*
X020921Y008394D02*
X021055Y008394D01*
X021042Y008385D02*
X020904Y008385D01*
X020885Y008377D02*
X021029Y008377D01*
X021016Y008368D02*
X020843Y008368D01*
X021010Y008360D02*
X020511Y008360D01*
X020511Y008112D02*
X020524Y008112D01*
X020511Y008103D02*
X020556Y008103D01*
X020812Y007924D02*
X020908Y007924D01*
X020900Y007915D02*
X020807Y007915D01*
X020804Y007907D02*
X020895Y007907D01*
X020890Y007898D02*
X020801Y007898D01*
X020798Y007890D02*
X020886Y007890D01*
X020883Y007881D02*
X020796Y007881D01*
X020794Y007873D02*
X020881Y007873D01*
X020879Y007864D02*
X020792Y007864D01*
X020791Y007855D02*
X020878Y007855D01*
X020876Y007847D02*
X020789Y007847D01*
X020788Y007838D02*
X020875Y007838D01*
X020873Y007830D02*
X020787Y007830D01*
X020786Y007821D02*
X020872Y007821D01*
X020871Y007813D02*
X020785Y007813D01*
X020784Y007804D02*
X020870Y007804D01*
X020870Y007796D02*
X020783Y007796D01*
X020782Y007787D02*
X020869Y007787D01*
X020868Y007779D02*
X020781Y007779D01*
X020780Y007770D02*
X020867Y007770D01*
X020866Y007761D02*
X020778Y007761D01*
X020776Y007753D02*
X020865Y007753D01*
X020862Y007727D02*
X020764Y007727D01*
X020759Y007719D02*
X020860Y007719D01*
X020859Y007710D02*
X020752Y007710D01*
X020743Y007702D02*
X020857Y007702D01*
X020856Y007693D02*
X020727Y007693D01*
X020699Y007685D02*
X020854Y007685D01*
X020939Y007685D02*
X021121Y007685D01*
X021124Y007693D02*
X020939Y007693D01*
X020939Y007702D02*
X021126Y007702D01*
X021128Y007710D02*
X020976Y007710D01*
X020992Y007719D02*
X021131Y007719D01*
X021133Y007727D02*
X021004Y007727D01*
X021011Y007736D02*
X021134Y007736D01*
X021135Y007744D02*
X021018Y007744D01*
X021023Y007753D02*
X021136Y007753D01*
X021137Y007761D02*
X021028Y007761D01*
X021030Y007770D02*
X021138Y007770D01*
X021139Y007779D02*
X021033Y007779D01*
X021034Y007787D02*
X021141Y007787D01*
X021142Y007796D02*
X021035Y007796D01*
X021036Y007804D02*
X021142Y007804D01*
X021142Y007813D02*
X021036Y007813D01*
X021036Y007821D02*
X021142Y007821D01*
X021142Y007830D02*
X021036Y007830D01*
X021035Y007838D02*
X021142Y007838D01*
X021142Y007847D02*
X021035Y007847D01*
X021035Y007855D02*
X021142Y007855D01*
X021141Y007864D02*
X021034Y007864D01*
X021033Y007873D02*
X021141Y007873D01*
X021140Y007881D02*
X021031Y007881D01*
X021027Y007890D02*
X021138Y007890D01*
X021137Y007898D02*
X021023Y007898D01*
X021017Y007907D02*
X021136Y007907D01*
X021135Y007915D02*
X021009Y007915D01*
X020997Y007924D02*
X020983Y007930D01*
X020929Y007932D02*
X020822Y007932D01*
X020939Y007676D02*
X021118Y007676D01*
X021114Y007668D02*
X020939Y007668D01*
X020939Y007659D02*
X021110Y007659D01*
X021106Y007650D02*
X020939Y007650D01*
X020939Y007642D02*
X021103Y007642D01*
X021098Y007633D02*
X020939Y007633D01*
X020939Y007625D02*
X021092Y007625D01*
X021086Y007616D02*
X020939Y007616D01*
X020939Y007608D02*
X021080Y007608D01*
X021073Y007599D02*
X020939Y007599D01*
X020939Y007591D02*
X021064Y007591D01*
X021055Y007582D02*
X020939Y007582D01*
X020939Y007574D02*
X021044Y007574D01*
X021030Y007565D02*
X020939Y007565D01*
X020939Y007556D02*
X021016Y007556D01*
X020993Y007548D02*
X020939Y007548D01*
X020939Y007539D02*
X020955Y007539D01*
X021269Y008669D02*
X020508Y008669D01*
X020506Y008671D01*
X020506Y008834D01*
X020511Y008834D01*
X020721Y008834D01*
X020790Y008905D01*
X020787Y008907D01*
X020510Y009075D01*
X020509Y009275D01*
X020902Y009013D01*
X021124Y009240D01*
X021124Y009056D01*
X020900Y008832D01*
X021362Y008832D01*
X021269Y008669D01*
X021273Y008676D02*
X020506Y008676D01*
X020506Y008684D02*
X021278Y008684D01*
X021283Y008693D02*
X020506Y008693D01*
X020506Y008701D02*
X021288Y008701D01*
X021293Y008710D02*
X020506Y008710D01*
X020506Y008718D02*
X021298Y008718D01*
X021302Y008727D02*
X020506Y008727D01*
X020506Y008735D02*
X021307Y008735D01*
X021312Y008744D02*
X020506Y008744D01*
X020506Y008753D02*
X021317Y008753D01*
X021322Y008761D02*
X020506Y008761D01*
X020506Y008770D02*
X021327Y008770D01*
X021332Y008778D02*
X020506Y008778D01*
X020506Y008787D02*
X021337Y008787D01*
X021341Y008795D02*
X020506Y008795D01*
X020506Y008804D02*
X021346Y008804D01*
X021351Y008812D02*
X020506Y008812D01*
X020506Y008821D02*
X021356Y008821D01*
X021361Y008829D02*
X020506Y008829D01*
X020620Y009009D02*
X021077Y009009D01*
X021069Y009000D02*
X020634Y009000D01*
X020648Y008992D02*
X021060Y008992D01*
X021052Y008983D02*
X020662Y008983D01*
X020676Y008975D02*
X021043Y008975D01*
X021034Y008966D02*
X020690Y008966D01*
X020704Y008958D02*
X021026Y008958D01*
X021017Y008949D02*
X020718Y008949D01*
X020732Y008940D02*
X021009Y008940D01*
X021000Y008932D02*
X020746Y008932D01*
X020760Y008923D02*
X020992Y008923D01*
X020983Y008915D02*
X020775Y008915D01*
X020789Y008906D02*
X020975Y008906D01*
X020966Y008898D02*
X020783Y008898D01*
X020775Y008889D02*
X020958Y008889D01*
X020949Y008881D02*
X020767Y008881D01*
X020758Y008872D02*
X020941Y008872D01*
X020932Y008864D02*
X020750Y008864D01*
X020742Y008855D02*
X020923Y008855D01*
X020915Y008846D02*
X020734Y008846D01*
X020725Y008838D02*
X020906Y008838D01*
X020907Y009017D02*
X021086Y009017D01*
X021094Y009026D02*
X020915Y009026D01*
X020923Y009034D02*
X021103Y009034D01*
X021111Y009043D02*
X020932Y009043D01*
X020940Y009052D02*
X021120Y009052D01*
X021124Y009060D02*
X020948Y009060D01*
X020957Y009069D02*
X021124Y009069D01*
X021124Y009077D02*
X020965Y009077D01*
X020974Y009086D02*
X021124Y009086D01*
X021124Y009094D02*
X020982Y009094D01*
X020990Y009103D02*
X021124Y009103D01*
X021124Y009111D02*
X020999Y009111D01*
X021007Y009120D02*
X021124Y009120D01*
X021124Y009128D02*
X021015Y009128D01*
X021024Y009137D02*
X021124Y009137D01*
X021124Y009146D02*
X021032Y009146D01*
X021040Y009154D02*
X021124Y009154D01*
X021124Y009163D02*
X021049Y009163D01*
X021057Y009171D02*
X021124Y009171D01*
X021124Y009180D02*
X021065Y009180D01*
X021074Y009188D02*
X021124Y009188D01*
X021124Y009197D02*
X021082Y009197D01*
X021090Y009205D02*
X021124Y009205D01*
X021124Y009214D02*
X021099Y009214D01*
X021107Y009222D02*
X021124Y009222D01*
X021124Y009231D02*
X021116Y009231D01*
X021124Y009239D02*
X021124Y009239D01*
X021080Y009291D02*
X021020Y009291D01*
X021020Y009299D02*
X021089Y009299D01*
X021097Y009308D02*
X021020Y009308D01*
X021020Y009316D02*
X021106Y009316D01*
X021114Y009325D02*
X021020Y009325D01*
X021020Y009333D02*
X021123Y009333D01*
X021125Y009336D02*
X021125Y009390D01*
X021143Y009390D01*
X021227Y009397D01*
X021250Y009403D01*
X021271Y009413D01*
X021289Y009426D01*
X021317Y009455D01*
X021339Y009489D01*
X021354Y009527D01*
X021360Y009567D01*
X021360Y009628D01*
X021357Y009680D01*
X021357Y009681D01*
X021238Y009681D01*
X021238Y009678D01*
X021239Y009667D01*
X021243Y009631D01*
X021239Y009594D01*
X021235Y009582D01*
X021228Y009571D01*
X021217Y009563D01*
X021200Y009556D01*
X021180Y009553D01*
X021125Y009553D01*
X021125Y009597D01*
X021125Y009670D01*
X021020Y009670D01*
X021020Y009552D01*
X020507Y009552D01*
X020507Y009388D01*
X021011Y009388D01*
X021019Y009388D01*
X021020Y009231D01*
X021125Y009336D01*
X021125Y009342D02*
X021020Y009342D01*
X021020Y009351D02*
X021125Y009351D01*
X021125Y009359D02*
X021020Y009359D01*
X021020Y009368D02*
X021125Y009368D01*
X021125Y009376D02*
X021019Y009376D01*
X021019Y009385D02*
X021125Y009385D01*
X021182Y009393D02*
X020507Y009393D01*
X020507Y009402D02*
X021246Y009402D01*
X021266Y009410D02*
X020507Y009410D01*
X020507Y009419D02*
X021279Y009419D01*
X021291Y009427D02*
X020507Y009427D01*
X020507Y009436D02*
X021299Y009436D01*
X021307Y009445D02*
X020507Y009445D01*
X020507Y009453D02*
X021315Y009453D01*
X021321Y009462D02*
X020507Y009462D01*
X020507Y009470D02*
X021327Y009470D01*
X021332Y009479D02*
X020507Y009479D01*
X020507Y009487D02*
X021338Y009487D01*
X021341Y009496D02*
X020507Y009496D01*
X020507Y009504D02*
X021345Y009504D01*
X021348Y009513D02*
X020507Y009513D01*
X020507Y009521D02*
X021351Y009521D01*
X021354Y009530D02*
X020507Y009530D01*
X020507Y009539D02*
X021355Y009539D01*
X021357Y009547D02*
X020507Y009547D01*
X020601Y009752D02*
X021127Y009752D01*
X021127Y009744D02*
X020618Y009744D01*
X020617Y009744D02*
X020578Y009763D01*
X020543Y009789D01*
X020534Y009799D01*
X020514Y009835D01*
X020500Y009873D01*
X020494Y009914D01*
X020496Y009973D01*
X020504Y010031D01*
X020508Y010041D01*
X020512Y010051D01*
X020625Y010051D01*
X020623Y010043D02*
X020508Y010043D01*
X020512Y010051D02*
X020538Y010088D01*
X020569Y010120D01*
X020604Y010148D01*
X020604Y010149D01*
X020510Y010149D01*
X020510Y010307D01*
X021125Y010307D01*
X021125Y010141D01*
X020798Y010141D01*
X020750Y010138D01*
X020701Y010129D01*
X020679Y010120D01*
X020659Y010107D01*
X020642Y010089D01*
X020630Y010068D01*
X020622Y010040D01*
X020619Y010010D01*
X020622Y009981D01*
X020631Y009953D01*
X020641Y009937D01*
X020653Y009922D01*
X020668Y009911D01*
X020700Y009897D01*
X020733Y009891D01*
X021127Y009891D01*
X021127Y009728D01*
X020702Y009728D01*
X020659Y009732D01*
X020617Y009744D01*
X020649Y009735D02*
X021127Y009735D01*
X021127Y009761D02*
X020583Y009761D01*
X020570Y009769D02*
X021127Y009769D01*
X021127Y009778D02*
X020559Y009778D01*
X020547Y009786D02*
X021127Y009786D01*
X021127Y009795D02*
X020538Y009795D01*
X020532Y009803D02*
X021127Y009803D01*
X021127Y009812D02*
X020527Y009812D01*
X020522Y009820D02*
X021127Y009820D01*
X021127Y009829D02*
X020517Y009829D01*
X020513Y009838D02*
X021127Y009838D01*
X021127Y009846D02*
X020510Y009846D01*
X020507Y009855D02*
X021127Y009855D01*
X021127Y009863D02*
X020504Y009863D01*
X020501Y009872D02*
X021127Y009872D01*
X021127Y009880D02*
X020499Y009880D01*
X020498Y009889D02*
X021127Y009889D01*
X021125Y010145D02*
X020601Y010145D01*
X020590Y010137D02*
X020742Y010137D01*
X020699Y010128D02*
X020579Y010128D01*
X020569Y010119D02*
X020677Y010119D01*
X020665Y010111D02*
X020560Y010111D01*
X020552Y010102D02*
X020655Y010102D01*
X020647Y010094D02*
X020544Y010094D01*
X020537Y010085D02*
X020640Y010085D01*
X020635Y010077D02*
X020531Y010077D01*
X020525Y010068D02*
X020631Y010068D01*
X020628Y010060D02*
X020519Y010060D01*
X020505Y010034D02*
X020621Y010034D01*
X020620Y010025D02*
X020504Y010025D01*
X020502Y010017D02*
X020620Y010017D01*
X020619Y010008D02*
X020501Y010008D01*
X020500Y010000D02*
X020620Y010000D01*
X020621Y009991D02*
X020498Y009991D01*
X020497Y009983D02*
X020622Y009983D01*
X020625Y009974D02*
X020496Y009974D01*
X020496Y009966D02*
X020627Y009966D01*
X020630Y009957D02*
X020495Y009957D01*
X020495Y009949D02*
X020634Y009949D01*
X020639Y009940D02*
X020495Y009940D01*
X020495Y009931D02*
X020645Y009931D01*
X020653Y009923D02*
X020495Y009923D01*
X020494Y009914D02*
X020664Y009914D01*
X020680Y009906D02*
X020496Y009906D01*
X020497Y009897D02*
X020699Y009897D01*
X020510Y010154D02*
X021125Y010154D01*
X021125Y010162D02*
X020510Y010162D01*
X020510Y010171D02*
X021125Y010171D01*
X021125Y010179D02*
X020510Y010179D01*
X020510Y010188D02*
X021125Y010188D01*
X021125Y010196D02*
X020510Y010196D01*
X020510Y010205D02*
X021125Y010205D01*
X021125Y010213D02*
X020510Y010213D01*
X020510Y010222D02*
X021125Y010222D01*
X021125Y010231D02*
X020510Y010231D01*
X020510Y010239D02*
X021125Y010239D01*
X021125Y010248D02*
X020510Y010248D01*
X020510Y010256D02*
X021125Y010256D01*
X021125Y010265D02*
X020510Y010265D01*
X020510Y010273D02*
X021125Y010273D01*
X021125Y010282D02*
X020510Y010282D01*
X020510Y010290D02*
X021125Y010290D01*
X021125Y010299D02*
X020510Y010299D01*
X020507Y010405D02*
X021126Y010405D01*
X021126Y010564D01*
X021039Y010564D01*
X021039Y010567D01*
X021040Y010571D01*
X021042Y010574D01*
X021048Y010579D01*
X021063Y010590D01*
X021082Y010606D01*
X021098Y010624D01*
X021121Y010659D01*
X021135Y010699D01*
X021141Y010740D01*
X021139Y010819D01*
X021131Y010858D01*
X021115Y010893D01*
X021090Y010924D01*
X021068Y010943D01*
X021042Y010958D01*
X021014Y010969D01*
X020971Y010979D01*
X020926Y010982D01*
X020511Y010982D01*
X020511Y010821D01*
X020891Y010821D01*
X020920Y010818D01*
X020948Y010811D01*
X020974Y010798D01*
X020991Y010786D01*
X021003Y010770D01*
X021012Y010752D01*
X021016Y010739D01*
X021016Y010726D01*
X021139Y010726D01*
X021138Y010717D02*
X021016Y010717D01*
X021016Y010709D02*
X021137Y010709D01*
X021136Y010700D02*
X021015Y010700D01*
X021015Y010692D02*
X021133Y010692D01*
X021130Y010683D02*
X021015Y010683D01*
X021014Y010682D02*
X021011Y010659D01*
X021002Y010638D01*
X020989Y010619D01*
X020966Y010598D01*
X021073Y010598D01*
X021082Y010606D02*
X020976Y010606D01*
X020985Y010615D02*
X021090Y010615D01*
X021098Y010624D02*
X020993Y010624D01*
X020998Y010632D02*
X021103Y010632D01*
X021109Y010641D02*
X021003Y010641D01*
X021007Y010649D02*
X021114Y010649D01*
X021120Y010658D02*
X021010Y010658D01*
X021012Y010666D02*
X021123Y010666D01*
X021126Y010675D02*
X021013Y010675D01*
X021014Y010682D02*
X021016Y010726D01*
X021016Y010735D02*
X021141Y010735D01*
X021141Y010743D02*
X021015Y010743D01*
X021013Y010752D02*
X021141Y010752D01*
X021141Y010760D02*
X021008Y010760D01*
X021004Y010769D02*
X021141Y010769D01*
X021141Y010777D02*
X020997Y010777D01*
X020990Y010786D02*
X021140Y010786D01*
X021140Y010794D02*
X020979Y010794D01*
X021139Y010819D02*
X021136Y010842D01*
X021129Y010864D01*
X021119Y010886D01*
X021106Y010906D01*
X021090Y010923D01*
X021092Y010923D02*
X020511Y010923D01*
X020511Y010931D02*
X021082Y010931D01*
X021072Y010940D02*
X020511Y010940D01*
X020511Y010948D02*
X021060Y010948D01*
X021045Y010957D02*
X020511Y010957D01*
X020511Y010965D02*
X021024Y010965D01*
X020993Y010974D02*
X020511Y010974D01*
X020511Y010982D02*
X020511Y010821D01*
X020891Y010821D01*
X020903Y010820D02*
X021139Y010820D01*
X021140Y010811D02*
X020946Y010811D01*
X020964Y010803D02*
X021140Y010803D01*
X021137Y010829D02*
X020511Y010829D01*
X020511Y010837D02*
X021136Y010837D01*
X021134Y010846D02*
X020511Y010846D01*
X020511Y010854D02*
X021132Y010854D01*
X021129Y010863D02*
X020511Y010863D01*
X020511Y010871D02*
X021125Y010871D01*
X021121Y010880D02*
X020511Y010880D01*
X020511Y010888D02*
X021117Y010888D01*
X021112Y010897D02*
X020511Y010897D01*
X020511Y010905D02*
X021105Y010905D01*
X021098Y010914D02*
X020511Y010914D01*
X020511Y010982D02*
X020926Y010982D01*
X021014Y010969D02*
X021035Y010962D01*
X021055Y010952D01*
X021074Y010939D01*
X021090Y010924D01*
X021142Y010741D02*
X021139Y010716D01*
X021133Y010691D01*
X021125Y010668D01*
X021113Y010645D01*
X021099Y010625D01*
X021062Y010589D02*
X020950Y010589D01*
X020938Y010583D02*
X020908Y010574D01*
X020876Y010571D01*
X020849Y010571D01*
X020507Y010571D01*
X020507Y010405D01*
X020507Y010571D01*
X020849Y010571D01*
X020888Y010572D02*
X021041Y010572D01*
X021039Y010567D02*
X021039Y010564D01*
X021126Y010564D01*
X021126Y010405D01*
X020507Y010405D01*
X020507Y010410D02*
X021126Y010410D01*
X021126Y010418D02*
X020507Y010418D01*
X020507Y010427D02*
X021126Y010427D01*
X021126Y010436D02*
X020507Y010436D01*
X020507Y010444D02*
X021126Y010444D01*
X021126Y010453D02*
X020507Y010453D01*
X020507Y010461D02*
X021126Y010461D01*
X021126Y010470D02*
X020507Y010470D01*
X020507Y010478D02*
X021126Y010478D01*
X021126Y010487D02*
X020507Y010487D01*
X020507Y010495D02*
X021126Y010495D01*
X021126Y010504D02*
X020507Y010504D01*
X020507Y010512D02*
X021126Y010512D01*
X021126Y010521D02*
X020507Y010521D01*
X020507Y010530D02*
X021126Y010530D01*
X021126Y010538D02*
X020507Y010538D01*
X020507Y010547D02*
X021126Y010547D01*
X021126Y010555D02*
X020507Y010555D01*
X020507Y010564D02*
X021126Y010564D01*
X021048Y010580D02*
X021042Y010575D01*
X021051Y010581D02*
X020931Y010581D01*
X020938Y010583D02*
X020966Y010598D01*
X021015Y010969D02*
X020986Y010976D01*
X020956Y010980D01*
X020926Y010982D01*
X020938Y010583D02*
X020918Y010577D01*
X020897Y010573D01*
X020876Y010571D01*
X020974Y010798D02*
X020954Y010808D01*
X020934Y010815D01*
X020913Y010820D01*
X020891Y010821D01*
X021099Y010623D02*
X021083Y010605D01*
X021064Y010589D01*
X021042Y010574D02*
X021040Y010571D01*
X021039Y010567D01*
X020989Y010620D02*
X020999Y010634D01*
X021007Y010649D01*
X021012Y010665D01*
X021014Y010683D01*
X021017Y010726D02*
X021016Y010739D01*
X021013Y010752D01*
X021013Y010751D02*
X021006Y010765D01*
X020998Y010778D01*
X020987Y010788D01*
X020975Y010797D01*
X020990Y010619D02*
X020975Y010604D01*
X020958Y010592D01*
X020939Y010583D01*
X021141Y010740D02*
X021142Y010780D01*
X021140Y010819D01*
X020940Y011331D02*
X020995Y011353D01*
X021045Y011386D01*
X021088Y011428D01*
X021122Y011477D01*
X021146Y011532D01*
X021159Y011591D01*
X021160Y011652D01*
X021153Y011709D01*
X021021Y011709D01*
X021020Y011709D02*
X021031Y011677D01*
X021034Y011643D01*
X021032Y011609D01*
X021024Y011576D01*
X021017Y011559D01*
X021004Y011544D01*
X020968Y011516D01*
X020927Y011496D01*
X020882Y011484D01*
X020836Y011480D01*
X020774Y011485D01*
X020713Y011499D01*
X020684Y011512D01*
X020517Y011512D01*
X020514Y011521D02*
X020673Y011521D01*
X020662Y011529D02*
X020511Y011529D01*
X020525Y011487D01*
X020546Y011448D01*
X020573Y011412D01*
X020605Y011382D01*
X020645Y011355D01*
X020689Y011335D01*
X020736Y011322D01*
X020783Y011316D01*
X020881Y011319D01*
X020940Y011331D01*
X020944Y011333D02*
X020698Y011333D01*
X020676Y011341D02*
X020965Y011341D01*
X020986Y011350D02*
X020657Y011350D01*
X020641Y011358D02*
X021003Y011358D01*
X021016Y011367D02*
X020628Y011367D01*
X020615Y011375D02*
X021029Y011375D01*
X021042Y011384D02*
X020603Y011384D01*
X020594Y011392D02*
X021052Y011392D01*
X021060Y011401D02*
X020585Y011401D01*
X020576Y011409D02*
X021069Y011409D01*
X021078Y011418D02*
X020569Y011418D01*
X020562Y011427D02*
X021087Y011427D01*
X021093Y011435D02*
X020556Y011435D01*
X020549Y011444D02*
X021099Y011444D01*
X021105Y011452D02*
X020544Y011452D01*
X020539Y011461D02*
X021111Y011461D01*
X021117Y011469D02*
X020535Y011469D01*
X020530Y011478D02*
X021123Y011478D01*
X021126Y011486D02*
X020891Y011486D01*
X020922Y011495D02*
X021130Y011495D01*
X021134Y011503D02*
X020941Y011503D01*
X020959Y011512D02*
X021138Y011512D01*
X021141Y011521D02*
X020973Y011521D01*
X020985Y011529D02*
X021145Y011529D01*
X021148Y011538D02*
X020996Y011538D01*
X021006Y011546D02*
X021150Y011546D01*
X021151Y011555D02*
X021013Y011555D01*
X021019Y011563D02*
X021153Y011563D01*
X021155Y011572D02*
X021023Y011572D01*
X021025Y011580D02*
X021157Y011580D01*
X021159Y011589D02*
X021027Y011589D01*
X021029Y011597D02*
X021160Y011597D01*
X021160Y011606D02*
X021031Y011606D01*
X021032Y011615D02*
X021160Y011615D01*
X021160Y011623D02*
X021033Y011623D01*
X021034Y011632D02*
X021160Y011632D01*
X021160Y011640D02*
X021034Y011640D01*
X021034Y011649D02*
X021160Y011649D01*
X021160Y011657D02*
X021033Y011657D01*
X021032Y011666D02*
X021159Y011666D01*
X021158Y011674D02*
X021031Y011674D01*
X021029Y011683D02*
X021156Y011683D01*
X021155Y011691D02*
X021026Y011691D01*
X021023Y011700D02*
X021154Y011700D01*
X021153Y011709D02*
X021140Y011764D01*
X021122Y011810D01*
X021095Y011850D01*
X021059Y011884D01*
X021017Y011909D01*
X020972Y011926D01*
X020924Y011935D01*
X020924Y011770D01*
X020925Y011770D01*
X020949Y011767D01*
X020971Y011759D01*
X020992Y011746D01*
X021008Y011729D01*
X021020Y011709D01*
X021016Y011717D02*
X021151Y011717D01*
X021149Y011726D02*
X021010Y011726D01*
X021004Y011734D02*
X021147Y011734D01*
X021145Y011743D02*
X020995Y011743D01*
X020984Y011751D02*
X021143Y011751D01*
X021141Y011760D02*
X020970Y011760D01*
X020941Y011768D02*
X021139Y011768D01*
X021135Y011777D02*
X020924Y011777D01*
X020924Y011785D02*
X021132Y011785D01*
X021129Y011794D02*
X020924Y011794D01*
X020924Y011802D02*
X021125Y011802D01*
X021121Y011811D02*
X020924Y011811D01*
X020924Y011820D02*
X021116Y011820D01*
X021110Y011828D02*
X020924Y011828D01*
X020924Y011837D02*
X021104Y011837D01*
X021098Y011845D02*
X020924Y011845D01*
X020924Y011854D02*
X021091Y011854D01*
X021082Y011862D02*
X020924Y011862D01*
X020924Y011871D02*
X021073Y011871D01*
X021064Y011879D02*
X020924Y011879D01*
X020924Y011888D02*
X021053Y011888D01*
X021038Y011896D02*
X020924Y011896D01*
X020924Y011905D02*
X021024Y011905D01*
X021005Y011914D02*
X020924Y011914D01*
X020924Y011922D02*
X020982Y011922D01*
X020947Y011931D02*
X020924Y011931D01*
X020922Y012008D02*
X020724Y012008D01*
X020688Y012013D02*
X020841Y011989D01*
X020981Y012021D01*
X021088Y012105D01*
X021154Y012238D01*
X021161Y012296D01*
X021161Y012298D01*
X021044Y012298D01*
X021044Y012303D02*
X021038Y012259D01*
X021012Y012212D01*
X020968Y012180D01*
X020932Y012164D01*
X020873Y012153D01*
X020799Y012151D01*
X020749Y012158D01*
X020703Y012173D01*
X020661Y012195D01*
X020620Y012262D01*
X020611Y012333D01*
X020635Y012404D01*
X020675Y012448D01*
X020724Y012470D01*
X020786Y012485D01*
X020843Y012485D01*
X020920Y012475D01*
X020985Y012445D01*
X021018Y012411D01*
X021039Y012372D01*
X021043Y012324D01*
X021043Y012320D01*
X021160Y012322D01*
X021150Y012401D01*
X021128Y012465D01*
X021074Y012543D01*
X021024Y012586D01*
X020932Y012627D01*
X020846Y012638D01*
X020763Y012628D01*
X020666Y012601D01*
X020615Y012569D01*
X020570Y012522D01*
X020539Y012478D01*
X020514Y012405D01*
X020504Y012306D01*
X020520Y012188D01*
X020590Y012076D01*
X020688Y012013D01*
X020684Y012016D02*
X020960Y012016D01*
X020986Y012025D02*
X020670Y012025D01*
X020657Y012033D02*
X020997Y012033D01*
X021008Y012042D02*
X020644Y012042D01*
X020631Y012050D02*
X021019Y012050D01*
X021029Y012059D02*
X020617Y012059D01*
X020604Y012067D02*
X021040Y012067D01*
X021051Y012076D02*
X020591Y012076D01*
X020585Y012084D02*
X021062Y012084D01*
X021073Y012093D02*
X020580Y012093D01*
X020575Y012101D02*
X021084Y012101D01*
X021091Y012110D02*
X020569Y012110D01*
X020564Y012119D02*
X021095Y012119D01*
X021099Y012127D02*
X020559Y012127D01*
X020553Y012136D02*
X021104Y012136D01*
X021108Y012144D02*
X020548Y012144D01*
X020542Y012153D02*
X020787Y012153D01*
X020740Y012161D02*
X020537Y012161D01*
X020532Y012170D02*
X020713Y012170D01*
X020693Y012178D02*
X020526Y012178D01*
X020521Y012187D02*
X020677Y012187D01*
X020661Y012195D02*
X020519Y012195D01*
X020518Y012204D02*
X020656Y012204D01*
X020651Y012213D02*
X020517Y012213D01*
X020516Y012221D02*
X020646Y012221D01*
X020640Y012230D02*
X020515Y012230D01*
X020514Y012238D02*
X020635Y012238D01*
X020630Y012247D02*
X020512Y012247D01*
X020511Y012255D02*
X020625Y012255D01*
X020620Y012264D02*
X020510Y012264D01*
X020509Y012272D02*
X020619Y012272D01*
X020618Y012281D02*
X020508Y012281D01*
X020507Y012289D02*
X020617Y012289D01*
X020616Y012298D02*
X020506Y012298D01*
X020505Y012307D02*
X020615Y012307D01*
X020614Y012315D02*
X020505Y012315D01*
X020506Y012324D02*
X020613Y012324D01*
X020612Y012332D02*
X020507Y012332D01*
X020508Y012341D02*
X020614Y012341D01*
X020617Y012349D02*
X020509Y012349D01*
X020510Y012358D02*
X020620Y012358D01*
X020623Y012366D02*
X020511Y012366D01*
X020511Y012375D02*
X020626Y012375D01*
X020628Y012383D02*
X020512Y012383D01*
X020513Y012392D02*
X020631Y012392D01*
X020634Y012401D02*
X020514Y012401D01*
X020516Y012409D02*
X020640Y012409D01*
X020648Y012418D02*
X020519Y012418D01*
X020522Y012426D02*
X020655Y012426D01*
X020663Y012435D02*
X020525Y012435D01*
X020528Y012443D02*
X020671Y012443D01*
X020684Y012452D02*
X020530Y012452D01*
X020533Y012460D02*
X020703Y012460D01*
X020722Y012469D02*
X020536Y012469D01*
X020539Y012477D02*
X020755Y012477D01*
X020752Y011994D02*
X020790Y011989D01*
X020828Y011988D01*
X020866Y011990D01*
X020903Y011995D01*
X020885Y011999D02*
X020778Y011999D01*
X020833Y011990D02*
X020847Y011990D01*
X020911Y012469D02*
X020878Y012475D01*
X020845Y012479D01*
X020812Y012480D01*
X020691Y012186D02*
X020712Y012176D01*
X020734Y012168D01*
X020757Y012162D01*
X020781Y012159D01*
X020691Y012449D02*
X020719Y012462D01*
X020750Y012472D01*
X020781Y012478D01*
X020813Y012480D01*
X020903Y012477D02*
X021120Y012477D01*
X021126Y012469D02*
X020934Y012469D01*
X020952Y012460D02*
X021130Y012460D01*
X021133Y012452D02*
X020971Y012452D01*
X020987Y012443D02*
X021136Y012443D01*
X021139Y012435D02*
X020996Y012435D01*
X021004Y012426D02*
X021142Y012426D01*
X021145Y012418D02*
X021012Y012418D01*
X021019Y012409D02*
X021148Y012409D01*
X021151Y012401D02*
X021024Y012401D01*
X021029Y012392D02*
X021152Y012392D01*
X021153Y012383D02*
X021033Y012383D01*
X021038Y012375D02*
X021154Y012375D01*
X021155Y012366D02*
X021040Y012366D01*
X021041Y012358D02*
X021156Y012358D01*
X021157Y012349D02*
X021041Y012349D01*
X021042Y012341D02*
X021158Y012341D01*
X021159Y012332D02*
X021043Y012332D01*
X021043Y012324D02*
X021160Y012324D01*
X021164Y012322D02*
X021164Y012316D01*
X021039Y012316D01*
X021037Y012308D02*
X021037Y012299D01*
X021044Y012303D02*
X021159Y012303D01*
X021161Y012298D01*
X021161Y012289D02*
X021043Y012289D01*
X021041Y012281D02*
X021160Y012281D01*
X021159Y012272D02*
X021040Y012272D01*
X021039Y012264D02*
X021158Y012264D01*
X021156Y012255D02*
X021036Y012255D01*
X021032Y012247D02*
X021155Y012247D01*
X021154Y012238D02*
X021027Y012238D01*
X021022Y012230D02*
X021150Y012230D01*
X021146Y012221D02*
X021017Y012221D01*
X021013Y012213D02*
X021142Y012213D01*
X021138Y012204D02*
X021001Y012204D01*
X020990Y012195D02*
X021133Y012195D01*
X021129Y012187D02*
X020978Y012187D01*
X020965Y012178D02*
X021125Y012178D01*
X021121Y012170D02*
X020945Y012170D01*
X020918Y012161D02*
X021116Y012161D01*
X021112Y012153D02*
X020862Y012153D01*
X020847Y012644D02*
X020812Y012642D01*
X020776Y012638D01*
X020741Y012631D01*
X020707Y012622D01*
X020673Y012610D01*
X020683Y012606D02*
X020981Y012606D01*
X021000Y012597D02*
X020660Y012597D01*
X020646Y012588D02*
X021019Y012588D01*
X021032Y012580D02*
X020633Y012580D01*
X020619Y012571D02*
X021042Y012571D01*
X021051Y012563D02*
X020609Y012563D01*
X020601Y012554D02*
X021061Y012554D01*
X021071Y012546D02*
X020593Y012546D01*
X020585Y012537D02*
X021079Y012537D01*
X021084Y012529D02*
X020577Y012529D01*
X020569Y012520D02*
X021090Y012520D01*
X021096Y012512D02*
X020563Y012512D01*
X020557Y012503D02*
X021102Y012503D01*
X021108Y012494D02*
X020551Y012494D01*
X020545Y012486D02*
X021114Y012486D01*
X021164Y012308D02*
X021037Y012308D01*
X020519Y012447D02*
X020509Y012412D01*
X020502Y012377D01*
X020498Y012341D01*
X020497Y012305D01*
X020636Y012392D02*
X020646Y012409D01*
X020659Y012425D01*
X020674Y012438D01*
X020690Y012449D01*
X020674Y012610D02*
X020647Y012598D01*
X020622Y012583D01*
X020599Y012566D01*
X020578Y012546D01*
X020560Y012524D01*
X020543Y012500D01*
X020530Y012474D01*
X020519Y012447D01*
X020713Y012614D02*
X020962Y012614D01*
X020942Y012623D02*
X020744Y012623D01*
X020789Y012631D02*
X020900Y012631D01*
X020878Y012159D02*
X020845Y012157D01*
X020813Y012157D01*
X020781Y012160D01*
X020635Y012037D02*
X020613Y012051D01*
X020594Y012069D01*
X020576Y012088D01*
X020653Y011911D02*
X020603Y011879D01*
X020562Y011837D01*
X020529Y011788D01*
X020511Y011745D01*
X020500Y011700D01*
X020628Y011700D01*
X020626Y011696D02*
X020637Y011718D01*
X020652Y011736D01*
X020669Y011751D01*
X020693Y011764D01*
X020719Y011773D01*
X020746Y011777D01*
X020746Y011937D01*
X020744Y011937D01*
X020726Y011936D01*
X020707Y011932D01*
X020653Y011911D01*
X020660Y011914D02*
X020746Y011914D01*
X020746Y011922D02*
X020682Y011922D01*
X020704Y011931D02*
X020746Y011931D01*
X020746Y011905D02*
X020644Y011905D01*
X020631Y011896D02*
X020746Y011896D01*
X020746Y011888D02*
X020618Y011888D01*
X020605Y011879D02*
X020746Y011879D01*
X020746Y011871D02*
X020596Y011871D01*
X020587Y011862D02*
X020746Y011862D01*
X020746Y011854D02*
X020578Y011854D01*
X020570Y011845D02*
X020746Y011845D01*
X020746Y011837D02*
X020561Y011837D01*
X020556Y011828D02*
X020746Y011828D01*
X020746Y011820D02*
X020550Y011820D01*
X020545Y011811D02*
X020746Y011811D01*
X020746Y011802D02*
X020539Y011802D01*
X020533Y011794D02*
X020746Y011794D01*
X020746Y011785D02*
X020528Y011785D01*
X020525Y011777D02*
X020745Y011777D01*
X020706Y011768D02*
X020521Y011768D01*
X020518Y011760D02*
X020685Y011760D01*
X020670Y011751D02*
X020514Y011751D01*
X020511Y011743D02*
X020659Y011743D01*
X020650Y011734D02*
X020509Y011734D01*
X020507Y011726D02*
X020643Y011726D01*
X020637Y011717D02*
X020504Y011717D01*
X020502Y011709D02*
X020633Y011709D01*
X020626Y011696D02*
X020619Y011673D01*
X020616Y011649D01*
X020618Y011617D01*
X020625Y011585D01*
X020639Y011556D01*
X020659Y011531D01*
X020684Y011512D01*
X020703Y011503D02*
X020520Y011503D01*
X020523Y011495D02*
X020732Y011495D01*
X020769Y011486D02*
X020526Y011486D01*
X020511Y011529D02*
X020500Y011591D01*
X020496Y011653D01*
X020500Y011700D01*
X020500Y011691D02*
X020625Y011691D01*
X020622Y011683D02*
X020499Y011683D01*
X020498Y011674D02*
X020620Y011674D01*
X020618Y011666D02*
X020497Y011666D01*
X020497Y011657D02*
X020617Y011657D01*
X020616Y011649D02*
X020497Y011649D01*
X020497Y011640D02*
X020617Y011640D01*
X020617Y011632D02*
X020498Y011632D01*
X020498Y011623D02*
X020618Y011623D01*
X020619Y011615D02*
X020499Y011615D01*
X020499Y011606D02*
X020621Y011606D01*
X020623Y011597D02*
X020500Y011597D01*
X020501Y011589D02*
X020625Y011589D01*
X020628Y011580D02*
X020502Y011580D01*
X020504Y011572D02*
X020632Y011572D01*
X020636Y011563D02*
X020505Y011563D01*
X020507Y011555D02*
X020640Y011555D01*
X020647Y011546D02*
X020508Y011546D01*
X020510Y011538D02*
X020654Y011538D01*
X020849Y010571D02*
X020876Y010571D01*
X021707Y009686D02*
X021774Y009723D01*
X021845Y009748D01*
X021921Y009759D01*
X021996Y009757D01*
X022037Y009749D01*
X022077Y009735D01*
X022113Y009715D01*
X022158Y009679D01*
X022194Y009635D01*
X022159Y009635D01*
X022154Y009634D01*
X022148Y009632D01*
X022134Y009620D01*
X022123Y009605D01*
X022120Y009597D01*
X022118Y009575D01*
X022122Y009552D01*
X022132Y009532D01*
X022158Y009496D01*
X022173Y009479D01*
X022189Y009465D01*
X022208Y009454D01*
X022228Y009445D01*
X022241Y009443D01*
X022254Y009443D01*
X022276Y009450D01*
X022295Y009462D01*
X022372Y009462D01*
X022371Y009467D02*
X022374Y009432D01*
X022372Y009398D01*
X022363Y009365D01*
X022347Y009334D01*
X022325Y009303D01*
X022299Y009276D01*
X022276Y009259D01*
X022248Y009249D01*
X022219Y009245D01*
X022190Y009249D01*
X022163Y009260D01*
X022094Y009307D01*
X022033Y009364D01*
X022016Y009379D01*
X021995Y009389D01*
X021972Y009393D01*
X021949Y009392D01*
X021927Y009384D01*
X021908Y009371D01*
X021892Y009353D01*
X021880Y009331D01*
X021872Y009307D01*
X021868Y009282D01*
X021870Y009253D01*
X021878Y009225D01*
X021893Y009200D01*
X021907Y009187D01*
X021924Y009178D01*
X021942Y009174D01*
X021960Y009174D01*
X021977Y009178D01*
X021984Y009182D01*
X021989Y009187D01*
X022013Y009220D01*
X022017Y009226D01*
X022018Y009233D01*
X022017Y009240D01*
X022020Y009221D01*
X022023Y009184D01*
X022020Y009147D01*
X022013Y009120D01*
X021378Y009120D01*
X021388Y009128D02*
X022016Y009128D01*
X022013Y009120D02*
X022001Y009094D01*
X021349Y009094D01*
X021340Y009086D02*
X021994Y009086D01*
X022001Y009094D02*
X021983Y009072D01*
X021961Y009053D01*
X021933Y009037D01*
X021901Y009028D01*
X021868Y009025D01*
X021271Y009025D01*
X021487Y009217D01*
X021519Y009251D01*
X021542Y009291D01*
X021870Y009291D01*
X021871Y009299D02*
X021545Y009299D01*
X021548Y009306D02*
X021550Y009321D01*
X021550Y009411D01*
X021555Y009465D01*
X021570Y009517D01*
X021593Y009565D01*
X021626Y009611D01*
X021664Y009651D01*
X021707Y009686D01*
X021705Y009684D02*
X022153Y009684D01*
X022162Y009675D02*
X021694Y009675D01*
X021683Y009667D02*
X022169Y009667D01*
X022176Y009658D02*
X021672Y009658D01*
X021662Y009650D02*
X022183Y009650D01*
X022190Y009641D02*
X021654Y009641D01*
X021646Y009632D02*
X022149Y009632D01*
X022138Y009624D02*
X021638Y009624D01*
X021630Y009615D02*
X022131Y009615D01*
X022125Y009607D02*
X021623Y009607D01*
X021617Y009598D02*
X022121Y009598D01*
X022120Y009590D02*
X021611Y009590D01*
X021605Y009581D02*
X022119Y009581D01*
X022118Y009573D02*
X021599Y009573D01*
X021593Y009564D02*
X022120Y009564D01*
X022121Y009556D02*
X021589Y009556D01*
X021585Y009547D02*
X022125Y009547D01*
X022129Y009539D02*
X021580Y009539D01*
X021576Y009530D02*
X022134Y009530D01*
X022140Y009521D02*
X021572Y009521D01*
X021569Y009513D02*
X022146Y009513D01*
X022152Y009504D02*
X021566Y009504D01*
X021564Y009496D02*
X022159Y009496D01*
X022166Y009487D02*
X021562Y009487D01*
X021559Y009479D02*
X022174Y009479D01*
X022184Y009470D02*
X021557Y009470D01*
X021555Y009462D02*
X022195Y009462D01*
X022209Y009453D02*
X021554Y009453D01*
X021553Y009445D02*
X022231Y009445D01*
X022259Y009445D02*
X022373Y009445D01*
X022372Y009453D02*
X022282Y009453D01*
X022295Y009462D02*
X022311Y009478D01*
X022321Y009498D01*
X022327Y009518D01*
X022329Y009539D01*
X022329Y009563D01*
X022330Y009562D01*
X022344Y009545D01*
X022352Y009525D01*
X022358Y009511D01*
X022362Y009502D01*
X022371Y009467D01*
X022370Y009470D02*
X022303Y009470D01*
X022311Y009479D02*
X022368Y009479D01*
X022366Y009487D02*
X022316Y009487D01*
X022320Y009496D02*
X022364Y009496D01*
X022361Y009504D02*
X022323Y009504D01*
X022326Y009513D02*
X022358Y009513D01*
X022354Y009521D02*
X022327Y009521D01*
X022328Y009530D02*
X022350Y009530D01*
X022347Y009539D02*
X022329Y009539D01*
X022329Y009547D02*
X022342Y009547D01*
X022335Y009556D02*
X022329Y009556D01*
X022329Y009563D02*
X022329Y009563D01*
X022374Y009436D02*
X021553Y009436D01*
X021552Y009427D02*
X022374Y009427D01*
X022373Y009419D02*
X021551Y009419D01*
X021550Y009410D02*
X022373Y009410D01*
X022372Y009402D02*
X021550Y009402D01*
X021550Y009393D02*
X021970Y009393D01*
X021973Y009393D02*
X022371Y009393D01*
X022368Y009385D02*
X022004Y009385D01*
X022019Y009376D02*
X022366Y009376D01*
X022364Y009368D02*
X022029Y009368D01*
X022039Y009359D02*
X022360Y009359D01*
X022356Y009351D02*
X022048Y009351D01*
X022057Y009342D02*
X022351Y009342D01*
X022347Y009333D02*
X022066Y009333D01*
X022075Y009325D02*
X022341Y009325D01*
X022335Y009316D02*
X022084Y009316D01*
X022093Y009308D02*
X022329Y009308D01*
X022321Y009299D02*
X022105Y009299D01*
X022118Y009291D02*
X022313Y009291D01*
X022305Y009282D02*
X022131Y009282D01*
X022143Y009274D02*
X022296Y009274D01*
X022284Y009265D02*
X022156Y009265D01*
X022172Y009257D02*
X022269Y009257D01*
X022244Y009248D02*
X022198Y009248D01*
X022020Y009222D02*
X022015Y009222D01*
X022018Y009231D02*
X022019Y009231D01*
X022021Y009214D02*
X022009Y009214D01*
X022003Y009205D02*
X022022Y009205D01*
X022022Y009197D02*
X021996Y009197D01*
X021990Y009188D02*
X022023Y009188D01*
X022023Y009180D02*
X021980Y009180D01*
X022022Y009171D02*
X021436Y009171D01*
X021445Y009180D02*
X021921Y009180D01*
X021906Y009188D02*
X021455Y009188D01*
X021465Y009197D02*
X021897Y009197D01*
X021890Y009205D02*
X021474Y009205D01*
X021484Y009214D02*
X021885Y009214D01*
X021880Y009222D02*
X021492Y009222D01*
X021500Y009231D02*
X021877Y009231D01*
X021874Y009239D02*
X021508Y009239D01*
X021516Y009248D02*
X021871Y009248D01*
X021870Y009257D02*
X021522Y009257D01*
X021527Y009265D02*
X021869Y009265D01*
X021869Y009274D02*
X021532Y009274D01*
X021537Y009282D02*
X021868Y009282D01*
X021873Y009308D02*
X021548Y009308D01*
X021548Y009306D02*
X021542Y009291D01*
X021550Y009316D02*
X021876Y009316D01*
X021879Y009325D02*
X021550Y009325D01*
X021550Y009333D02*
X021882Y009333D01*
X021886Y009342D02*
X021550Y009342D01*
X021550Y009351D02*
X021891Y009351D01*
X021898Y009359D02*
X021550Y009359D01*
X021550Y009368D02*
X021905Y009368D01*
X021916Y009376D02*
X021550Y009376D01*
X021550Y009385D02*
X021929Y009385D01*
X021734Y009701D02*
X022131Y009701D01*
X022121Y009709D02*
X021749Y009709D01*
X021764Y009718D02*
X022108Y009718D01*
X022092Y009726D02*
X021783Y009726D01*
X021807Y009735D02*
X022076Y009735D01*
X022052Y009744D02*
X021832Y009744D01*
X021872Y009752D02*
X022021Y009752D01*
X022142Y009692D02*
X021718Y009692D01*
X021358Y009675D02*
X021239Y009675D01*
X021239Y009667D02*
X021358Y009667D01*
X021359Y009658D02*
X021240Y009658D01*
X021241Y009650D02*
X021359Y009650D01*
X021360Y009641D02*
X021242Y009641D01*
X021243Y009632D02*
X021360Y009632D01*
X021360Y009624D02*
X021242Y009624D01*
X021241Y009615D02*
X021360Y009615D01*
X021360Y009607D02*
X021241Y009607D01*
X021240Y009598D02*
X021360Y009598D01*
X021360Y009590D02*
X021238Y009590D01*
X021235Y009581D02*
X021360Y009581D01*
X021360Y009573D02*
X021229Y009573D01*
X021219Y009564D02*
X021360Y009564D01*
X021358Y009556D02*
X021199Y009556D01*
X021125Y009556D02*
X021020Y009556D01*
X021020Y009564D02*
X021125Y009564D01*
X021125Y009573D02*
X021020Y009573D01*
X021020Y009581D02*
X021125Y009581D01*
X021125Y009590D02*
X021020Y009590D01*
X021020Y009598D02*
X021125Y009598D01*
X021125Y009607D02*
X021020Y009607D01*
X021020Y009615D02*
X021125Y009615D01*
X021125Y009624D02*
X021020Y009624D01*
X021020Y009632D02*
X021125Y009632D01*
X021125Y009641D02*
X021020Y009641D01*
X021020Y009650D02*
X021125Y009650D01*
X021125Y009658D02*
X021020Y009658D01*
X021020Y009667D02*
X021125Y009667D01*
X021072Y009282D02*
X021020Y009282D01*
X021020Y009274D02*
X021063Y009274D01*
X021054Y009265D02*
X021020Y009265D01*
X021020Y009257D02*
X021046Y009257D01*
X021037Y009248D02*
X021020Y009248D01*
X021020Y009239D02*
X021029Y009239D01*
X020883Y009026D02*
X020591Y009026D01*
X020577Y009034D02*
X020870Y009034D01*
X020858Y009043D02*
X020563Y009043D01*
X020549Y009052D02*
X020845Y009052D01*
X020832Y009060D02*
X020535Y009060D01*
X020521Y009069D02*
X020819Y009069D01*
X020806Y009077D02*
X020510Y009077D01*
X020510Y009086D02*
X020794Y009086D01*
X020781Y009094D02*
X020510Y009094D01*
X020510Y009103D02*
X020768Y009103D01*
X020755Y009111D02*
X020510Y009111D01*
X020510Y009120D02*
X020742Y009120D01*
X020729Y009128D02*
X020510Y009128D01*
X020510Y009137D02*
X020717Y009137D01*
X020704Y009146D02*
X020510Y009146D01*
X020510Y009154D02*
X020691Y009154D01*
X020678Y009163D02*
X020510Y009163D01*
X020510Y009171D02*
X020665Y009171D01*
X020653Y009180D02*
X020510Y009180D01*
X020510Y009188D02*
X020640Y009188D01*
X020627Y009197D02*
X020510Y009197D01*
X020510Y009205D02*
X020614Y009205D01*
X020601Y009214D02*
X020510Y009214D01*
X020510Y009222D02*
X020588Y009222D01*
X020576Y009231D02*
X020510Y009231D01*
X020510Y009239D02*
X020563Y009239D01*
X020550Y009248D02*
X020510Y009248D01*
X020510Y009257D02*
X020537Y009257D01*
X020524Y009265D02*
X020509Y009265D01*
X020509Y009274D02*
X020512Y009274D01*
X020606Y009017D02*
X020896Y009017D01*
X021272Y009026D02*
X021878Y009026D01*
X021923Y009034D02*
X021282Y009034D01*
X021292Y009043D02*
X021943Y009043D01*
X021959Y009052D02*
X021301Y009052D01*
X021311Y009060D02*
X021970Y009060D01*
X021980Y009069D02*
X021320Y009069D01*
X021330Y009077D02*
X021987Y009077D01*
X022005Y009103D02*
X021359Y009103D01*
X021368Y009111D02*
X022009Y009111D01*
X022018Y009137D02*
X021397Y009137D01*
X021407Y009146D02*
X022020Y009146D01*
X022021Y009154D02*
X021417Y009154D01*
X021426Y009163D02*
X022022Y009163D01*
X020906Y011324D02*
X020728Y011324D01*
X021004Y012420D02*
X020983Y012437D01*
X020961Y012451D01*
X020937Y012462D01*
X020912Y012470D01*
X020989Y012201D02*
X020969Y012188D01*
X020947Y012176D01*
X020925Y012168D01*
X020901Y012162D01*
X020877Y012159D01*
X020903Y011995D02*
X020936Y012002D01*
X020967Y012013D01*
X020997Y012028D01*
X021026Y012045D01*
X021052Y012066D01*
X021076Y012089D01*
X021097Y012114D01*
X021116Y012142D01*
X020989Y012201D02*
X021003Y012214D01*
X021015Y012228D01*
X021024Y012244D01*
X021031Y012262D01*
X021036Y012280D01*
X021037Y012299D01*
X021030Y012379D02*
X021023Y012394D01*
X021014Y012407D01*
X021004Y012420D01*
X021087Y012536D02*
X021105Y012514D01*
X021121Y012489D01*
X021134Y012464D01*
X021145Y012437D01*
X021153Y012410D01*
X021087Y012536D02*
X021063Y012560D01*
X021037Y012582D01*
X021009Y012601D01*
X020979Y012616D01*
X020947Y012629D01*
X020914Y012637D01*
X020881Y012642D01*
X020847Y012644D01*
X021143Y012710D02*
X020511Y012710D01*
X020511Y012880D01*
X020897Y012880D01*
X020923Y012879D01*
X021062Y012879D01*
X021058Y012876D02*
X021075Y012889D01*
X021106Y012919D01*
X021131Y012949D01*
X021146Y012984D01*
X021156Y013027D01*
X021161Y013081D01*
X021159Y013119D01*
X021148Y013155D01*
X021133Y013186D01*
X021111Y013214D01*
X021085Y013237D01*
X021054Y013254D01*
X021055Y013256D01*
X021056Y013257D01*
X021059Y013261D01*
X021078Y013279D01*
X021108Y013310D01*
X021133Y013345D01*
X021149Y013377D01*
X021158Y013411D01*
X021160Y013446D01*
X021156Y013496D01*
X021146Y013546D01*
X021134Y013580D01*
X021114Y013611D01*
X021087Y013636D01*
X021050Y013659D01*
X021010Y013674D01*
X020966Y013681D01*
X020510Y013681D01*
X020510Y013514D01*
X020915Y013514D01*
X020951Y013510D01*
X020984Y013497D01*
X021001Y013486D01*
X021157Y013486D01*
X021156Y013494D02*
X020989Y013494D01*
X021001Y013486D02*
X021014Y013472D01*
X021023Y013455D01*
X021028Y013436D01*
X021031Y013400D01*
X021155Y013400D01*
X021153Y013392D02*
X021030Y013392D01*
X021031Y013400D02*
X021027Y013363D01*
X021022Y013346D01*
X021013Y013330D01*
X021001Y013317D01*
X020980Y013301D01*
X020956Y013290D01*
X020929Y013284D01*
X020885Y013281D01*
X020510Y013281D01*
X020510Y013111D01*
X020926Y013111D01*
X020953Y013108D01*
X020979Y013098D01*
X021001Y013083D01*
X021015Y013069D01*
X021024Y013052D01*
X021030Y013033D01*
X021157Y013033D01*
X021158Y013041D02*
X021028Y013041D01*
X021030Y013033D02*
X021031Y013013D01*
X021029Y012979D01*
X021026Y012961D01*
X021019Y012944D01*
X021007Y012929D01*
X020969Y012896D01*
X021083Y012896D01*
X021091Y012905D02*
X020979Y012905D01*
X020989Y012913D02*
X021100Y012913D01*
X021109Y012922D02*
X020999Y012922D01*
X021008Y012930D02*
X021115Y012930D01*
X021122Y012939D02*
X021015Y012939D01*
X021020Y012947D02*
X021129Y012947D01*
X021134Y012956D02*
X021024Y012956D01*
X021027Y012964D02*
X021137Y012964D01*
X021141Y012973D02*
X021028Y012973D01*
X021030Y012981D02*
X021145Y012981D01*
X021148Y012990D02*
X021030Y012990D01*
X021031Y012999D02*
X021150Y012999D01*
X021152Y013007D02*
X021031Y013007D01*
X021031Y013016D02*
X021154Y013016D01*
X021156Y013024D02*
X021031Y013024D01*
X021025Y013050D02*
X021159Y013050D01*
X021159Y013058D02*
X021021Y013058D01*
X021016Y013067D02*
X021160Y013067D01*
X021161Y013075D02*
X021008Y013075D01*
X021000Y013084D02*
X021161Y013084D01*
X021161Y013093D02*
X020987Y013093D01*
X020971Y013101D02*
X021160Y013101D01*
X021159Y013110D02*
X020939Y013110D01*
X020951Y013289D02*
X021088Y013289D01*
X021096Y013298D02*
X020972Y013298D01*
X020986Y013306D02*
X021104Y013306D01*
X021112Y013315D02*
X020998Y013315D01*
X021007Y013323D02*
X021118Y013323D01*
X021124Y013332D02*
X021014Y013332D01*
X021019Y013340D02*
X021130Y013340D01*
X021135Y013349D02*
X021023Y013349D01*
X021026Y013357D02*
X021139Y013357D01*
X021144Y013366D02*
X021028Y013366D01*
X021029Y013374D02*
X021148Y013374D01*
X021151Y013383D02*
X021029Y013383D01*
X021030Y013409D02*
X021157Y013409D01*
X021158Y013417D02*
X021030Y013417D01*
X021029Y013426D02*
X021159Y013426D01*
X021160Y013434D02*
X021029Y013434D01*
X021026Y013443D02*
X021160Y013443D01*
X021160Y013451D02*
X021024Y013451D01*
X021020Y013460D02*
X021159Y013460D01*
X021159Y013468D02*
X021015Y013468D01*
X021009Y013477D02*
X021158Y013477D01*
X021155Y013503D02*
X020970Y013503D01*
X020939Y013511D02*
X021153Y013511D01*
X021152Y013520D02*
X020510Y013520D01*
X020510Y013528D02*
X021150Y013528D01*
X021148Y013537D02*
X020510Y013537D01*
X020510Y013545D02*
X021147Y013545D01*
X021144Y013554D02*
X020510Y013554D01*
X020510Y013562D02*
X021140Y013562D01*
X021137Y013571D02*
X020510Y013571D01*
X020510Y013579D02*
X021134Y013579D01*
X021128Y013588D02*
X020510Y013588D01*
X020510Y013597D02*
X021123Y013597D01*
X021117Y013605D02*
X020510Y013605D01*
X020510Y013614D02*
X021111Y013614D01*
X021102Y013622D02*
X020510Y013622D01*
X020510Y013631D02*
X021093Y013631D01*
X021082Y013639D02*
X020510Y013639D01*
X020510Y013648D02*
X021069Y013648D01*
X021055Y013656D02*
X020510Y013656D01*
X020510Y013665D02*
X021035Y013665D01*
X021012Y013673D02*
X020510Y013673D01*
X020510Y013280D02*
X021080Y013280D01*
X021071Y013272D02*
X020510Y013272D01*
X020510Y013263D02*
X021062Y013263D01*
X021055Y013255D02*
X020510Y013255D01*
X020510Y013246D02*
X021068Y013246D01*
X021083Y013238D02*
X020510Y013238D01*
X020510Y013229D02*
X021093Y013229D01*
X021103Y013221D02*
X020510Y013221D01*
X020510Y013212D02*
X021112Y013212D01*
X021119Y013204D02*
X020510Y013204D01*
X020510Y013195D02*
X021126Y013195D01*
X021132Y013186D02*
X020510Y013186D01*
X020510Y013178D02*
X021137Y013178D01*
X021141Y013169D02*
X020510Y013169D01*
X020510Y013161D02*
X021145Y013161D01*
X021149Y013152D02*
X020510Y013152D01*
X020510Y013144D02*
X021152Y013144D01*
X021154Y013135D02*
X020510Y013135D01*
X020510Y013127D02*
X021156Y013127D01*
X021159Y013118D02*
X020510Y013118D01*
X020511Y012879D02*
X020922Y012879D01*
X020923Y012879D02*
X020947Y012884D01*
X020969Y012896D01*
X020953Y012887D02*
X021073Y012887D01*
X021058Y012876D02*
X021056Y012867D01*
X021143Y012867D01*
X021143Y012710D01*
X021143Y012717D02*
X020511Y012717D01*
X020511Y012725D02*
X021143Y012725D01*
X021143Y012734D02*
X020511Y012734D01*
X020511Y012742D02*
X021143Y012742D01*
X021143Y012751D02*
X020511Y012751D01*
X020511Y012759D02*
X021143Y012759D01*
X021143Y012768D02*
X020511Y012768D01*
X020511Y012776D02*
X021143Y012776D01*
X021143Y012785D02*
X020511Y012785D01*
X020511Y012794D02*
X021143Y012794D01*
X021143Y012802D02*
X020511Y012802D01*
X020511Y012811D02*
X021143Y012811D01*
X021143Y012819D02*
X020511Y012819D01*
X020511Y012828D02*
X021143Y012828D01*
X021143Y012836D02*
X020511Y012836D01*
X020511Y012845D02*
X021143Y012845D01*
X021143Y012853D02*
X020511Y012853D01*
X020511Y012862D02*
X021143Y012862D01*
X021057Y012870D02*
X020511Y012870D01*
X021153Y012410D02*
X021159Y012381D01*
X021163Y012352D01*
X021164Y012322D01*
X021039Y012316D02*
X021038Y012337D01*
X021035Y012358D01*
X021029Y012378D01*
X020497Y012305D02*
X020499Y012271D01*
X020504Y012238D01*
X020513Y012206D01*
X020524Y012174D01*
X020539Y012144D01*
X020556Y012115D01*
X020576Y012088D01*
X020690Y012186D02*
X020674Y012197D01*
X020659Y012210D01*
X020646Y012225D01*
X020636Y012242D01*
X020628Y012260D01*
X020622Y012282D01*
X020619Y012304D01*
X020619Y012327D01*
X020622Y012349D01*
X020628Y012371D01*
X020636Y012392D01*
X020635Y012037D02*
X020663Y012022D01*
X020692Y012010D01*
X020722Y012001D01*
X020752Y011994D01*
X021116Y012142D02*
X021132Y012173D01*
X021145Y012205D01*
X021155Y012239D01*
X021162Y012273D01*
X021165Y012308D01*
X021064Y010590D02*
X021049Y010579D01*
X021015Y010682D02*
X021017Y010726D01*
D14*
X020603Y011176D03*
D15*
X023480Y011052D02*
X023480Y010752D01*
X023781Y011052D01*
X023856Y011052D01*
X023931Y010977D01*
X023931Y010827D01*
X023856Y010752D01*
X023856Y010592D02*
X023706Y010592D01*
X023631Y010517D01*
X023631Y010291D01*
X023480Y010291D02*
X023931Y010291D01*
X023931Y010517D01*
X023856Y010592D01*
X023931Y010131D02*
X023931Y009981D01*
X023931Y010056D02*
X023555Y010056D01*
X023480Y009981D01*
X023480Y009906D01*
X023555Y009831D01*
X022715Y014010D02*
X022640Y014085D01*
X022640Y014160D01*
X022715Y014235D01*
X023091Y014235D01*
X023091Y014160D02*
X023091Y014310D01*
X023091Y014470D02*
X022640Y014470D01*
X022791Y014470D02*
X022791Y014695D01*
X022866Y014771D01*
X023016Y014771D01*
X023091Y014695D01*
X023091Y014470D01*
X022866Y014931D02*
X022715Y014931D01*
X022640Y015006D01*
X022640Y015156D01*
X022715Y015231D01*
X022791Y015231D01*
X022866Y015156D01*
X022866Y014931D01*
X023016Y015081D01*
X023091Y015231D01*
X022920Y016581D02*
X022619Y016581D01*
X022770Y016581D02*
X022770Y017031D01*
X022920Y016881D01*
X023080Y016956D02*
X023080Y016806D01*
X023155Y016731D01*
X023380Y016731D01*
X023380Y016581D02*
X023380Y017031D01*
X023155Y017031D01*
X023080Y016956D01*
X023540Y017031D02*
X023690Y017031D01*
X023615Y017031D02*
X023615Y016656D01*
X023690Y016581D01*
X023765Y016581D01*
X023840Y016656D01*
X019031Y004552D02*
X018956Y004552D01*
X018655Y004252D01*
X018580Y004252D01*
X018806Y004092D02*
X018731Y004017D01*
X018731Y003791D01*
X018580Y003791D02*
X019031Y003791D01*
X019031Y004017D01*
X018956Y004092D01*
X018806Y004092D01*
X019031Y004252D02*
X019031Y004552D01*
X019031Y003631D02*
X019031Y003481D01*
X019031Y003556D02*
X018655Y003556D01*
X018580Y003481D01*
X018580Y003406D01*
X018655Y003331D01*
M02*
