G75*
G70*
%OFA0B0*%
%FSLAX24Y24*%
%IPPOS*%
%LPD*%
%AMOC8*
5,1,8,0,0,1.08239X$1,22.5*
%
%ADD10R,0.0434X0.0356*%
%ADD11R,0.0710X0.0631*%
%ADD12R,0.0356X0.0434*%
%ADD13R,0.0395X0.0395*%
%ADD14R,0.0680X0.0380*%
%ADD15R,0.0552X0.0297*%
%ADD16C,0.0474*%
%ADD17C,0.0720*%
%ADD18R,0.0749X0.0356*%
%ADD19R,0.0580X0.0300*%
%ADD20R,0.0300X0.0580*%
D10*
X019335Y004580D03*
X019335Y005092D03*
X022735Y005080D03*
X022735Y005592D03*
X019685Y010880D03*
X019685Y011392D03*
D11*
X019335Y012285D03*
X019335Y013387D03*
X022535Y013387D03*
X022535Y012285D03*
D12*
X021091Y013836D03*
X020580Y013836D03*
X022330Y014836D03*
X022841Y014836D03*
X022791Y006986D03*
X022280Y006986D03*
X022280Y006436D03*
X022791Y006436D03*
D13*
X022735Y004631D03*
X022735Y004041D03*
X021131Y011836D03*
X020540Y011836D03*
D14*
X019835Y005586D03*
X021835Y005586D03*
X021835Y004086D03*
X019835Y004086D03*
D15*
X020324Y012462D03*
X021347Y012462D03*
X021347Y012836D03*
X021347Y013210D03*
X020324Y013210D03*
D16*
X018935Y014836D03*
X022285Y004836D03*
D17*
X017835Y003836D03*
X017835Y004836D03*
X017835Y005836D03*
X017835Y006836D03*
X017835Y007836D03*
X017835Y008836D03*
X017835Y009836D03*
X017835Y010836D03*
X017835Y011836D03*
X017835Y012836D03*
X017835Y013836D03*
X017835Y014836D03*
X018335Y015836D03*
X019335Y015836D03*
X020335Y015836D03*
X021335Y015836D03*
X022335Y015836D03*
X023335Y015836D03*
X023835Y014836D03*
X023835Y013836D03*
X023835Y012836D03*
X023835Y011836D03*
X022735Y011336D03*
X023835Y010836D03*
X022735Y010336D03*
X023835Y009836D03*
X023835Y008836D03*
X023835Y007836D03*
X023835Y006836D03*
X023835Y005836D03*
X023835Y004836D03*
X023835Y003836D03*
D18*
X019035Y010514D03*
X019035Y010986D03*
X019035Y011459D03*
D19*
G36*
X020518Y010500D02*
X020109Y010909D01*
X020322Y011122D01*
X020731Y010713D01*
X020518Y010500D01*
G37*
G36*
X020295Y010277D02*
X019886Y010686D01*
X020099Y010899D01*
X020508Y010490D01*
X020295Y010277D01*
G37*
G36*
X020072Y010054D02*
X019663Y010463D01*
X019876Y010676D01*
X020285Y010267D01*
X020072Y010054D01*
G37*
G36*
X019850Y009831D02*
X019441Y010240D01*
X019654Y010453D01*
X020063Y010044D01*
X019850Y009831D01*
G37*
G36*
X019627Y009609D02*
X019218Y010018D01*
X019431Y010231D01*
X019840Y009822D01*
X019627Y009609D01*
G37*
G36*
X019404Y009386D02*
X018995Y009795D01*
X019208Y010008D01*
X019617Y009599D01*
X019404Y009386D01*
G37*
G36*
X019182Y009163D02*
X018773Y009572D01*
X018986Y009785D01*
X019395Y009376D01*
X019182Y009163D01*
G37*
G36*
X018959Y008941D02*
X018550Y009350D01*
X018763Y009563D01*
X019172Y009154D01*
X018959Y008941D01*
G37*
G36*
X022240Y007441D02*
X021831Y007850D01*
X022044Y008063D01*
X022453Y007654D01*
X022240Y007441D01*
G37*
G36*
X022017Y007219D02*
X021608Y007628D01*
X021821Y007841D01*
X022230Y007432D01*
X022017Y007219D01*
G37*
G36*
X021794Y006996D02*
X021385Y007405D01*
X021598Y007618D01*
X022007Y007209D01*
X021794Y006996D01*
G37*
G36*
X021572Y006773D02*
X021163Y007182D01*
X021376Y007395D01*
X021785Y006986D01*
X021572Y006773D01*
G37*
G36*
X021349Y006551D02*
X020940Y006960D01*
X021153Y007173D01*
X021562Y006764D01*
X021349Y006551D01*
G37*
G36*
X022462Y007664D02*
X022053Y008073D01*
X022266Y008286D01*
X022675Y007877D01*
X022462Y007664D01*
G37*
G36*
X022685Y007887D02*
X022276Y008296D01*
X022489Y008509D01*
X022898Y008100D01*
X022685Y007887D01*
G37*
G36*
X022908Y008110D02*
X022499Y008519D01*
X022712Y008732D01*
X023121Y008323D01*
X022908Y008110D01*
G37*
D20*
G36*
X022712Y008941D02*
X022499Y009154D01*
X022908Y009563D01*
X023121Y009350D01*
X022712Y008941D01*
G37*
G36*
X022489Y009163D02*
X022276Y009376D01*
X022685Y009785D01*
X022898Y009572D01*
X022489Y009163D01*
G37*
G36*
X022266Y009386D02*
X022053Y009599D01*
X022462Y010008D01*
X022675Y009795D01*
X022266Y009386D01*
G37*
G36*
X022044Y009609D02*
X021831Y009822D01*
X022240Y010231D01*
X022453Y010018D01*
X022044Y009609D01*
G37*
G36*
X021821Y009831D02*
X021608Y010044D01*
X022017Y010453D01*
X022230Y010240D01*
X021821Y009831D01*
G37*
G36*
X021598Y010054D02*
X021385Y010267D01*
X021794Y010676D01*
X022007Y010463D01*
X021598Y010054D01*
G37*
G36*
X021376Y010277D02*
X021163Y010490D01*
X021572Y010899D01*
X021785Y010686D01*
X021376Y010277D01*
G37*
G36*
X021153Y010500D02*
X020940Y010713D01*
X021349Y011122D01*
X021562Y010909D01*
X021153Y010500D01*
G37*
G36*
X018763Y008110D02*
X018550Y008323D01*
X018959Y008732D01*
X019172Y008519D01*
X018763Y008110D01*
G37*
G36*
X018986Y007887D02*
X018773Y008100D01*
X019182Y008509D01*
X019395Y008296D01*
X018986Y007887D01*
G37*
G36*
X019208Y007664D02*
X018995Y007877D01*
X019404Y008286D01*
X019617Y008073D01*
X019208Y007664D01*
G37*
G36*
X019431Y007441D02*
X019218Y007654D01*
X019627Y008063D01*
X019840Y007850D01*
X019431Y007441D01*
G37*
G36*
X019654Y007219D02*
X019441Y007432D01*
X019850Y007841D01*
X020063Y007628D01*
X019654Y007219D01*
G37*
G36*
X019876Y006996D02*
X019663Y007209D01*
X020072Y007618D01*
X020285Y007405D01*
X019876Y006996D01*
G37*
G36*
X020099Y006773D02*
X019886Y006986D01*
X020295Y007395D01*
X020508Y007182D01*
X020099Y006773D01*
G37*
G36*
X020322Y006551D02*
X020109Y006764D01*
X020518Y007173D01*
X020731Y006960D01*
X020322Y006551D01*
G37*
M02*
