%
M48
M72
T01C0.0200
T02C0.0400
%
T01
X20235Y7886
X20485Y8336
X21185Y8836
X21835Y8336
X22135Y8836
X21685Y9336
X20935Y9286
X19835Y8886
X20385Y9986
X21085Y9986
X20835Y11086
X21605Y11206
X20085Y11936
X19585Y12786
X18835Y12836
X21535Y13636
X22535Y14036
X21735Y12836
X22635Y12786
X19935Y14836
X19435Y14836
X20835Y5586
X20835Y4836
T02
X17835Y3836
X17835Y4836
X17835Y5836
X17835Y6836
X17835Y7836
X17835Y8836
X17835Y9836
X17835Y10836
X17835Y11836
X17835Y12836
X17835Y13836
X17835Y14836
X18335Y15836
X19335Y15836
X20335Y15836
X21335Y15836
X22335Y15836
X23335Y15836
X23835Y14836
X23835Y13836
X23835Y12836
X23835Y11836
X22735Y11336
X23835Y10836
X22735Y10336
X23835Y9836
X23835Y8836
X23835Y7836
X23835Y6836
X23835Y5836
X23835Y4836
X23835Y3836
M30
